<?xml version="1.0" encoding="UTF-8"?>
<svg width="151px" height="29px" viewBox="0 0 151 29" version="1.1" xmlns="http://www.w3.org/2000/svg" xmlns:xlink="http://www.w3.org/1999/xlink">
    <!-- Generator: Sketch 62 (91390) - https://sketch.com -->
    <title>boostly</title>
    <desc>Created with Sketch.</desc>
    <g id="Page-1" stroke="none" stroke-width="1" fill="none" fill-rule="evenodd">
        <g id="Extra-Large-Desktop/1440" transform="translate(-327.000000, -1484.000000)" fill="#0A090C" fill-rule="nonzero">
            <g id="Group-2" transform="translate(144.000000, 1483.854679)">
                <g id="boostly" transform="translate(183.000000, 0.145321)">
                    <path d="M110.3193,12.51705 C110.3193,6.42285 101.41985,7.91 101.41985,4.7159 C101.41985,3.7408 102.17445,2.7909 104.1992,2.7909 C105.58905,2.7909 106.8571,3.3495 107.61205,4.08135 C107.97745,4.42365 108.3194,4.61755 108.661,4.61755 C109.3932,4.61755 109.9777,4.03305 109.9777,3.3264 C109.9777,3.0338 109.88075,2.765 109.7348,2.54625 C108.759,1.1557 106.638,0.2541 104.20025,0.2541 C100.32295,0.2541 98.59255,2.3023 98.59255,4.7159 C98.59255,10.59275 107.492,8.95755 107.492,12.51705 C107.492,14.02975 106.4203,14.7609 104.2013,14.7609 C102.51885,14.7609 101.22665,13.9321 100.2022,12.90835 C99.9586,12.6651 99.66635,12.37285 99.1305,12.37285 C98.42315,12.37285 97.8383,12.95735 97.8383,13.68955 C97.8383,13.93245 97.91145,14.17745 98.0336,14.3717 C98.98385,15.9075 101.3005,17.346 104.202,17.346 C108.22175,17.34565 110.3193,15.4931 110.3193,12.51705 Z" id="Path"></path>
                    <path d="M123.83875,1.83925 C123.83875,1.1557 123.27735,0.595 122.59485,0.595 L112.3059,0.595 C111.6248,0.595 111.0606,1.1557 111.0606,1.83925 C111.0606,2.5214 111.62375,3.0821 112.3059,3.0821 L116.0355,3.0821 L116.0355,15.785 C116.0355,16.56515 116.669,17.19935 117.4495,17.19935 C118.2293,17.19935 118.86385,16.56515 118.86385,15.785 L118.86385,3.0821 L122.59485,3.0821 C123.2777,3.0821 123.83875,2.52175 123.83875,1.83925 Z" id="Path"></path>
                    <path d="M125.4295,17.19935 C126.45255,17.19935 127.01255,16.688 127.01255,15.6149 C127.01255,14.5173 126.4515,13.98145 125.4295,13.98145 C124.40505,13.98145 123.8188,14.51695 123.8188,15.6149 C123.8195,16.688 124.40575,17.19935 125.4295,17.19935 Z" id="Path"></path>
                    <path d="M138.30075,14.371 L132.524,14.371 L132.524,1.81475 C132.524,1.0346 131.88875,0.40075 131.10825,0.40075 C130.3281,0.40075 129.69565,1.03495 129.69565,1.81475 L129.69565,15.6394 C129.69565,16.41955 130.2805,17.0037 131.08585,17.0037 L138.3011,17.0037 C139.10645,17.0037 139.6675,16.443 139.6675,15.687 C139.6675,14.9555 139.1061,14.371 138.30075,14.371 Z" id="Path"></path>
                    <path d="M149.2897,0.4011 C148.77835,0.4011 148.3398,0.6692 148.0948,1.05875 L144.41385,6.83725 L140.7329,1.05875 C140.46305,0.64505 140.04935,0.4011 139.53765,0.4011 C138.75715,0.4011 138.1212,1.03495 138.1212,1.8151 C138.1212,2.0832 138.1968,2.37545 138.34275,2.57005 L142.9981,9.5186 L142.9981,15.7857 C142.9981,16.56515 143.6323,17.20005 144.41385,17.20005 C145.1933,17.20005 145.82785,16.56515 145.82785,15.7857 L145.82785,9.5186 L150.4846,2.57005 C150.6323,2.37475 150.70545,2.0825 150.70545,1.8151 C150.70545,1.03495 150.07125,0.4011 149.2897,0.4011 Z" id="Path"></path>
                    <path d="M21.2079,0.49105 C9.59245,0.49105 0.14455,9.9407 0.14455,21.5551 C0.14455,22.39265 0.8225,23.0699 1.65935,23.0699 C2.4962,23.0699 3.17345,22.3916 3.17345,21.5551 C3.17345,11.61055 11.263,3.5196 21.20755,3.5196 C31.51225,3.5196 39.8937,11.90245 39.8937,22.20435 C39.8937,23.45665 38.8738,24.47655 37.6208,24.47655 C36.3678,24.47655 35.3479,23.45665 35.3479,22.20435 C35.3479,14.49665 29.14695,8.2215 21.47285,8.0773 C21.3864,8.064 21.2989,8.05175 21.2072,8.05175 C13.96745,8.05175 8.07695,13.94295 8.07695,21.18235 C8.07695,24.1066 10.45485,26.48345 13.37805,26.48345 C14.7315,26.48345 15.96385,25.9693 16.9008,25.1314 C17.962,26.4425 19.5783,27.2832 21.39235,27.2832 C24.57665,27.2832 27.167,24.6932 27.167,21.5103 C27.167,18.3239 24.57665,15.7332 21.39235,15.7332 C18.21085,15.7332 15.6226,18.31935 15.61875,21.49945 C15.46195,22.6002 14.5208,23.45385 13.37805,23.45385 C12.12435,23.45385 11.1048,22.43605 11.1048,21.18235 C11.1048,15.64185 15.5897,11.13455 21.11725,11.08555 C21.14665,11.08695 21.1757,11.09465 21.20615,11.09465 C27.33255,11.09465 32.31655,16.07865 32.31655,22.20435 C32.31655,25.12755 34.69515,27.50615 37.61905,27.50615 C40.54295,27.50615 42.9201505,25.1272 42.9201505,22.20435 C42.9226,10.23225 33.1821,0.49105 21.2079,0.49105 Z M18.67915,21.19215 C18.8405,19.82855 19.9892,18.7635 21.39445,18.7635 C22.90785,18.7635 24.14055,19.9955 24.14055,21.511 C24.14055,23.023 22.9082,24.2557 21.39445,24.2557 C19.91605,24.2557 18.71695,23.07865 18.65885,21.61425 C18.6711,21.47635 18.67915,21.33565 18.67915,21.19215 Z" id="Shape"></path>
                    <path d="M53.58605,17.0037 L58.4136,17.0037 C61.92515,17.0037 63.7049,15.0549 63.7049,12.08025 C63.7049,10.17765 62.99755,8.86095 61.17055,8.1536 C62.16945,7.6664 62.97165,6.44735 62.97165,4.83735 C62.97165,2.59525 61.6567,0.59605 57.9747,0.59605 L53.58605,0.59605 C52.80555,0.59605 52.1717,1.23025 52.1717,2.01075 L52.1717,15.5904 C52.17205,16.37125 52.80485,17.0037 53.58605,17.0037 Z M54.99865,3.1318 L57.9747,3.1318 C59.50945,3.1318 60.1447,3.93505 60.1447,5.20345 C60.1447,6.4232 59.50945,7.29995 57.9747,7.29995 L54.99865,7.29995 L54.99865,3.1318 Z M54.99865,9.6901 L58.4129,9.6901 C60.02255,9.6901 60.82615,10.59205 60.82615,12.0806 C60.82615,13.54325 60.1454,14.46865 58.4129,14.46865 L54.99865,14.46865 L54.99865,9.6901 Z" id="Shape"></path>
                    <path d="M72.5046,0.25445 C67.58045,0.25445 64.7759,3.03275 64.7759,8.81195 C64.7759,14.51695 67.5801,17.3453 72.5046,17.3453 C77.43085,17.3453 80.2347,14.5166 80.2347,8.81195 C80.2347,3.0331 77.4312,0.25445 72.5046,0.25445 Z M72.5046,14.8099 C69.2867,14.8099 67.6998,12.83485 67.6998,8.81195 C67.6998,4.76525 69.286,2.7902 72.5046,2.7902 C75.7225,2.7902 77.3094,4.7656 77.3094,8.81195 C77.3094,12.83485 75.7232,14.8099 72.5046,14.8099 Z" id="Shape"></path>
                    <path d="M89.01095,0.25445 C84.0868,0.25445 81.2826,3.03275 81.2826,8.81195 C81.2826,14.51695 84.0868,17.3453 89.01095,17.3453 C93.93685,17.3453 96.73965,14.5166 96.73965,8.81195 C96.73965,3.0331 93.9372,0.25445 89.01095,0.25445 Z M89.01095,14.8099 C85.79305,14.8099 84.20615,12.83485 84.20615,8.81195 C84.20615,4.76525 85.792,2.7902 89.01095,2.7902 C92.23025,2.7902 93.81575,4.7656 93.81575,8.81195 C93.81505,12.83485 92.2306,14.8099 89.01095,14.8099 Z" id="Shape"></path>
                    <path d="M54.09355,21.9975 L52.171,27.0074 L53.07715,27.0074 L53.54685,25.68125 L55.5471,25.68125 L56.01715,27.0074 L56.95795,27.0074 L55.02805,21.9975 L54.09355,21.9975 Z M53.78555,25.01485 L54.54295,22.86095 L54.55765,22.86095 L54.565,22.86095 L55.31575,25.01485 L53.78555,25.01485 Z" id="Shape"></path>
                    <path d="M61.36865,23.282 C60.84295,23.282 60.49925,23.513 60.2322,23.88575 C60.07085,23.47135 59.65645,23.282 59.2144,23.282 C58.63865,23.282 58.33765,23.52665 58.0986,23.88575 L58.0776,23.88575 L58.0776,23.3807 L57.31985,23.3807 L57.31985,27.00775 L58.1196,27.00775 L58.1196,24.8535 C58.1196,24.24975 58.49865,23.9134 58.91305,23.9134 C59.3971,23.9134 59.5518,24.1801 59.5518,24.6778 L59.5518,27.0074 L60.35155,27.0074 L60.35155,24.8822 C60.35155,24.2718 60.5829,23.9134 61.1233,23.9134 C61.74735,23.9134 61.7827,24.31345 61.7827,24.88815 L61.7827,27.0074 L62.5824502,27.0074 L62.5824502,24.5028 C62.5828,23.618 62.13375,23.282 61.36865,23.282 Z" id="Path"></path>
                    <path d="M65.3387,23.282 C64.87565,23.282 64.44095,23.457 64.2159,23.8707 L64.2012,23.8707 L64.2012,23.3807 L63.4438,23.3807 L63.4438,28.34825 L64.24355,28.34825 L64.24355,26.537 L64.25755,26.537 C64.5106,26.93775 65.00865,27.10575 65.47135,27.10575 C66.54445,27.10575 67.03655,26.1863 67.03655,25.21085 C67.03655,24.1521 66.4825,23.282 65.3387,23.282 Z M65.2337,26.47365 C64.58725,26.47365 64.21625,25.92695 64.21625,25.19755 C64.21625,24.4251 64.55995,23.91305 65.2337,23.91305 C65.89275,23.91305 66.23645,24.5371 66.23645,25.19755 C66.23645,25.82895 65.9631,26.47365 65.2337,26.47365 Z" id="Shape"></path>
                    <rect id="Rectangle" x="67.73025" y="21.9975" width="1" height="5.0099"></rect>
                    <rect id="Rectangle" x="69.42075" y="21.9975" width="1" height="1"></rect>
                    <rect id="Rectangle" x="69.42075" y="23.37965" width="1" height="3.62775"></rect>
                    <path d="M71.32895,23.0776 L71.32895,23.37965 L70.7322,23.37965 L70.7322,23.9757 L71.32895,23.9757 L71.32895,27.0074 L72.1287,27.0074 L72.1287,23.9757 L72.8091,23.9757 L72.8091,23.37965 L72.1287,23.37965 L72.1287,23.00795 C72.1287,22.7066 72.3037,22.62855 72.5214,22.62855 C72.68275,22.62855 72.7881,22.6429 72.8931,22.6716 L72.8931,22.0465 C72.7671,22.0108 72.5851,21.99715 72.3317,21.99715 C71.813,21.9975 71.32895,22.15255 71.32895,23.0776 Z" id="Path"></path>
                    <path d="M74.7376,26.08795 L74.72395,26.08795 L73.77615,23.38035 L72.8994,23.38035 L74.27525,26.99375 L74.18355,27.2741 C74.0859,27.58385 73.99385,27.77915 73.62215,27.77915 C73.49615,27.77915 73.36945,27.75115 73.2431,27.7305 L73.2431,28.4039 C73.42545,28.4312 73.6085,28.44555 73.79785,28.44555 C74.6333,28.44555 74.82265,27.85545 75.08165,27.2034 L76.49215,23.3793 L75.6567,23.3793 L74.7376,26.08795 Z" id="Path"></path>
                    <path d="M80.32885,26.08795 L80.31485,26.08795 L79.3674,23.38035 L78.49065,23.38035 L79.8665,26.99375 L79.77445,27.2741 C79.6768,27.58385 79.5851,27.77915 79.21305,27.77915 C79.08705,27.77915 78.96,27.75115 78.834,27.7305 L78.834,28.4039 C79.01635,28.4312 79.1994,28.44555 79.38875,28.44555 C80.2242,28.44555 80.4139,27.85545 80.6729,27.2034 L82.0834,23.3793 L81.24795,23.3793 L80.32885,26.08795 Z" id="Path"></path>
                    <path d="M84.1939,23.282 C83.02945,23.282 82.36305,24.08175 82.36305,25.18985 C82.36305,26.30565 83.02945,27.1061 84.1939,27.1061 C85.35835,27.1061 86.0244,26.30565 86.0244,25.18985 C86.0244,24.08175 85.35835,23.282 84.1939,23.282 Z M84.1939,26.47365 C83.47815,26.47365 83.1628,25.8216 83.1628,25.18985 C83.1628,24.5658 83.47815,23.91375 84.1939,23.91375 C84.9093,23.91375 85.225,24.5658 85.225,25.18985 C85.22465,25.82125 84.9093,26.47365 84.1939,26.47365 Z" id="Shape"></path>
                    <path d="M89.0764,25.4849 C89.0764,26.0463 88.85065,26.4733 88.1846,26.4733 C87.7499,26.4733 87.4902,26.2423 87.4902,25.6039 L87.4902,23.38 L86.6908,23.38 L86.6908,25.6816 C86.6908,26.62835 87.0975,27.1047 88.04425,27.1047 C88.44535,27.1047 88.8797,26.866 89.0764,26.50095 L89.09005,26.50095 L89.09005,27.0053 L89.8751,27.0053 L89.8751,23.37895 L89.0764,23.37895 L89.0764,25.4849 L89.0764,25.4849 Z" id="Path"></path>
                    <path d="M91.4816,24.08175 L91.46795,24.08175 L91.46795,23.37965 L90.71685,23.37965 L90.71685,27.0067 L91.51625,27.0067 L91.51625,25.2805 C91.51625,24.48005 91.95165,24.03765 92.4994,24.03765 C92.6114,24.03765 92.73075,24.05935 92.8424,24.07405 L92.8424,23.3023 C92.77275,23.29495 92.7234,23.28095 92.5414,23.28095 C92.04965,23.282 91.57295,23.69535 91.4816,24.08175 Z" id="Path"></path>
                    <path d="M96.7141,23.282 C95.634,23.282 94.96025,24.16505 94.96025,25.19755 C94.96025,26.31335 95.5983,27.1061 96.73475,27.1061 C97.5282,27.1061 98.2009,26.6637 98.3759,25.87165 L97.61885,25.87165 C97.4785,26.2717 97.19745,26.4747 96.73475,26.4747 C96.06835,26.4747 95.75965,25.97035 95.75965,25.4016 L98.42595,25.4016 C98.56035,24.31275 97.8586,23.282 96.7141,23.282 Z M95.7607,24.8738 C95.78205,24.33445 96.1611,23.9134 96.71515,23.9134 C97.25555,23.9134 97.59925,24.36945 97.62725,24.8738 L95.7607,24.8738 Z" id="Shape"></path>
                    <path d="M100.9372,23.282 C100.4612,23.282 100.0468,23.52665 99.8074,23.9274 L99.7941,23.91375 L99.7941,23.3807 L99.036,23.3807 L99.036,27.00775 L99.8354,27.00775 L99.8354,24.8675 C99.8354,24.33515 100.17945,23.91375 100.7125,23.91375 C101.18325,23.91375 101.40725,24.1584 101.4216,24.72715 L101.4216,27.00775 L102.220302,27.00775 L102.220302,24.5168 C102.22135,23.70235 101.72365,23.282 100.9372,23.282 Z" id="Path"></path>
                    <path d="M105.6167,23.87735 L105.60235,23.87735 C105.399,23.47135 104.9846,23.282 104.5296,23.282 C103.49885,23.282 102.88845,24.1234 102.88845,25.09955 C102.88845,26.1373 103.36515,27.0067 104.51525,27.0067 C104.9643,27.0067 105.37835,26.768 105.60235,26.369 L105.6167,26.369 L105.6167,26.9227 C105.6167,27.51945 105.32935,27.84845 104.6836,27.84845 C104.27655,27.84845 103.91185,27.7711 103.8142,27.31645 L103.0141,27.31645 C103.0841,28.16485 103.90485,28.4459 104.6346,28.4459 C105.7791,28.4459 106.41785,27.90585 106.41785,26.8184 L106.41785,23.3807 L105.61775,23.3807 L105.6167,23.87735 L105.6167,23.87735 Z M104.6409,26.37565 C103.97555,26.37565 103.6868,25.7719 103.6868,25.17585 C103.6868,24.5721 103.9318,23.9134 104.6409,23.9134 C105.3353,23.9134 105.6167,24.48845 105.6167,25.1132 C105.6167,25.7306 105.3493,26.37565 104.6409,26.37565 Z" id="Shape"></path>
                    <path d="M110.2605,26.20065 L110.2605,24.33445 C110.2605,23.56935 109.5171,23.28165 108.80905,23.28165 C108.00895,23.28165 107.2155,23.5543 107.1595,24.4874 L107.9589,24.4874 C107.9946,24.09505 108.30995,23.91235 108.759,23.91235 C109.0817,23.91235 109.50975,23.9897 109.50975,24.40305 C109.50975,24.87275 108.9977,24.80975 108.42335,24.9151 C107.74995,24.99245 107.02685,25.14085 107.02685,26.0456 C107.02685,26.75295 107.6166,27.10435 108.26935,27.10435 C108.6974,27.10435 109.21015,26.971 109.5255,26.66125 C109.5892,26.9913 109.8202,27.10435 110.14325,27.10435 C110.27625,27.10435 110.52965,27.055 110.64795,27.01195 L110.64795,26.45825 C110.5636,26.4719 110.50025,26.4719 110.45125,26.4719 C110.3025,26.47365 110.2605,26.397 110.2605,26.20065 Z M109.46005,25.7866 C109.46005,26.29095 108.91335,26.47365 108.5623,26.47365 C108.2809,26.47365 107.8259,26.369 107.8259,26.01095 C107.8259,25.5906 108.13495,25.46425 108.47795,25.4072 C108.829,25.3435 109.21435,25.3512 109.46075,25.18985 L109.46005,25.7866 L109.46005,25.7866 Z" id="Shape"></path>
                    <path d="M113.67615,23.87735 L113.66145,23.87735 C113.45845,23.47135 113.04405,23.282 112.58905,23.282 C111.55795,23.282 110.94755,24.1234 110.94755,25.09955 C110.94755,26.1373 111.4246,27.0067 112.5747,27.0067 C113.02305,27.0067 113.4378,26.768 113.66145,26.369 L113.67615,26.369 L113.67615,26.9227 C113.67615,27.51945 113.38845,27.84845 112.7427,27.84845 C112.33565,27.84845 111.97095,27.7711 111.87365,27.31645 L111.0739,27.31645 C111.1439,28.16485 111.9643,28.4459 112.6944,28.4459 C113.83855,28.4459 114.47695,27.90585 114.47695,26.8184 L114.47695,23.3807 L113.6772,23.3807 L113.67615,23.87735 L113.67615,23.87735 Z M112.70035,26.37565 C112.035,26.37565 111.74625,25.7719 111.74625,25.17585 C111.74625,24.5721 111.99125,23.9134 112.70035,23.9134 C113.3951,23.9134 113.67615,24.48845 113.67615,25.1132 C113.67615,25.7306 113.40945,26.37565 112.70035,26.37565 Z" id="Shape"></path>
                    <path d="M116.8608,23.282 C115.78035,23.282 115.10625,24.16505 115.10625,25.19755 C115.10625,26.31335 115.74465,27.1061 116.8811,27.1061 C117.6742,27.1061 118.3476,26.6637 118.5226,25.87165 L117.76555,25.87165 C117.62485,26.2717 117.3438,26.4747 116.8811,26.4747 C116.21435,26.4747 115.906,25.97035 115.906,25.4016 L118.5723,25.4016 C118.70565,24.31275 118.0046,23.282 116.8608,23.282 Z M115.906,24.8738 C115.92735,24.33445 116.3064,23.9134 116.8608,23.9134 C117.4012,23.9134 117.7442,24.36945 117.77255,24.8738 L115.906,24.8738 Z" id="Shape"></path>
                    <path d="M123.22975,23.282 C122.70405,23.282 122.3607,23.513 122.09365,23.88575 C121.9323,23.47135 121.5179,23.282 121.07655,23.282 C120.50045,23.282 120.1991,23.52665 119.96075,23.88575 L119.9401,23.88575 L119.9401,23.3807 L119.182,23.3807 L119.182,27.00775 L119.98175,27.00775 L119.98175,24.8535 C119.98175,24.24975 120.3608,23.9134 120.77485,23.9134 C121.25925,23.9134 121.4136,24.1801 121.4136,24.6778 L121.4136,27.0074 L122.21335,27.0074 L122.21335,24.8822 C122.21335,24.2718 122.444,23.9134 122.9851,23.9134 C123.60845,23.9134 123.6445,24.31345 123.6445,24.88815 L123.6445,27.0074 L124.44425,27.0074 L124.44425,24.5028 C124.4446,23.618 123.9952,23.282 123.22975,23.282 Z" id="Path"></path>
                    <path d="M126.86275,23.282 C125.78265,23.282 125.1089,24.16505 125.1089,25.19755 C125.1089,26.31335 125.74765,27.1061 126.8841,27.1061 C127.6772,27.1061 128.3499,26.6637 128.5249,25.87165 L127.7682,25.87165 C127.6275,26.2717 127.3468,26.4747 126.8841,26.4747 C126.21735,26.4747 125.909,25.97035 125.909,25.4016 L128.5753,25.4016 C128.70865,24.31275 128.00725,23.282 126.86275,23.282 Z M125.909,24.8738 C125.92965,24.33445 126.3087,23.9134 126.86275,23.9134 C127.40385,23.9134 127.7472,24.36945 127.7752,24.8738 L125.909,24.8738 Z" id="Shape"></path>
                    <path d="M131.08585,23.282 C130.6095,23.282 130.1951,23.52665 129.95605,23.9274 L129.9424,23.91375 L129.9424,23.3807 L129.1843,23.3807 L129.1843,27.00775 L129.9837,27.00775 L129.9837,24.8675 C129.9837,24.33515 130.3274,23.91375 130.86115,23.91375 C131.33155,23.91375 131.5552,24.1584 131.56955,24.72715 L131.56955,27.00775 L132.368951,27.00775 L132.368951,24.5168 C132.36965,23.70235 131.8723,23.282 131.08585,23.282 Z" id="Path"></path>
                    <path d="M134.2502,22.29185 L133.45045,22.29185 L133.45045,23.3793 L132.8467,23.3793 L132.8467,23.97535 L133.45045,23.97535 L133.45045,26.1149 C133.4641,26.71935 133.61845,27.041 134.45355,27.041 C134.62855,27.041 134.79725,27.0123 134.97225,26.99935 L134.97225,26.38125 C134.8606,26.40855 134.74685,26.40855 134.6352,26.40855 C134.2775,26.40855 134.24915,26.2409 134.24915,25.91085 L134.24915,23.975 L134.97085,23.975 L134.97085,23.37895 L134.24915,23.37895 L134.2502,22.29185 L134.2502,22.29185 Z" id="Path"></path>
                </g>
            </g>
        </g>
    </g>
</svg>