<?xml version="1.0" encoding="UTF-8"?>
<svg width="141px" height="34px" viewBox="0 0 141 34" version="1.1" xmlns="http://www.w3.org/2000/svg" xmlns:xlink="http://www.w3.org/1999/xlink">
    <!-- Generator: Sketch 62 (91390) - https://sketch.com -->
    <title>Rockwell Collins</title>
    <desc>Created with Sketch.</desc>
    <g id="Page-1" stroke="none" stroke-width="1" fill="none" fill-rule="evenodd">
        <g id="Extra-Large-Desktop/1440" transform="translate(-338.000000, -1402.000000)" fill-rule="nonzero">
            <g id="Rockwell-Collins" transform="translate(338.800000, 1402.500000)">
                <path d="M0.0454,14.9462 L6.5844,0.2224 L15.2536,0.2224 C15.2536,0.2224 18.9328,0.4906 18.9328,3.4692 C18.9328,6.4482 16.0394,7.8406 14.2856,8.1014 C14.2856,8.1014 13.649,8.2136 13.5298,8.2318 C13.7552,8.315 15.9318,8.5556 15.9318,10.3432 C15.9318,10.3432 15.9206,11.0694 15.0714,12.8792 C14.2226,14.6894 14.1334,14.9462 14.1334,14.9462 L9.5974,14.9462 L11.0502,11.55 C11.0502,11.55 11.8096,9.5668 8.972,9.5504 C7.0282,9.5392 7.0282,9.5392 7.0282,9.5392 L4.671,14.9462 L0.0454,14.9462 L0.0454,14.9462 Z" id="Path" stroke="#000000" stroke-width="0.5" fill="#000000"></path>
                <path d="M46.4874,4.035 C46.4874,4.035 39.2226,1.983 34.8844,7.595 C31.9276,12.2158 33.6256,15.6906 41.6762,14.9384 C41.9142,14.4468 42.8382,12.3914 42.8382,12.3914 C42.8382,12.3914 38.2506,13.6426 38.2506,10.0824 C38.3784,9.4824 39.5464,5.8374 45.3406,6.6866 C45.698,5.9118 46.4874,4.035 46.4874,4.035 Z" id="Path" fill="#231F1F"></path>
                <polygon id="Path" stroke="#000000" stroke-width="0.5" fill="#000000" points="43.821 14.9382 48.4088 14.9382 50.658 9.9334 52.2814 14.9382 57.0184 14.9382 54.4562 9.2484 61.0546 4.3478 59.4162 14.9382 64.6594 14.9382 71.2278 6.5522 69.6792 14.9382 74.9814 14.9382 84.351 3.9456 79.1224 3.9456 73.0454 12.0334 74.49 3.9456 69.9472 3.9456 63.721 12.0188 65.255 3.9456 56.5564 3.9456 50.9558 8.8164 54.9182 0.0878 50.3454 0.0878"></polygon>
                <path d="M94.9412,10.1718 C94.9412,10.1718 98.7842,5.48 93.3026,3.8112 C92.2006,3.528 87.7916,2.9324 84.0382,6.463 C82.7578,7.58 80.1656,11.7652 83.1592,14.0442 C84.351,14.7444 86.3764,15.9506 92.6178,14.8784 C93.1686,13.7166 93.7498,12.4356 93.7498,12.4356 C93.7498,12.4356 85.1252,14.4612 86.272,10.321 C87.9106,10.321 94.9412,10.1718 94.9412,10.1718 Z M90.5436,5.9156 C93.314,5.9156 91.9472,8.5186 91.9472,8.5186 L86.8234,8.6824 C87.1056,8.182 87.7728,5.9156 90.5436,5.9156 Z" id="Shape" stroke="#000000" stroke-width="0.5" fill="#000000"></path>
                <polygon id="Path" fill="#231F1F" points="101.6438 0.1026 106.3208 0.1026 99.7822 14.9234 95.1942 14.9234"></polygon>
                <polygon id="Path" fill="#231F1F" points="98.501 17.8724 92.0212 32.678 87.4338 32.678 93.8838 17.8724"></polygon>
                <polygon id="Path" fill="#231F1F" points="109.1104 0.1102 113.7876 0.1102 107.2482 14.9306 102.661 14.9306"></polygon>
                <polygon id="Path" fill="#231F1F" points="105.9674 17.8798 99.488 32.6858 94.9006 32.6858 101.3502 17.8798"></polygon>
                <polygon id="Path" fill="#231F1F" points="110.0298 14.9234 114.6322 14.9234 113.3364 17.8798 108.6596 17.8798"></polygon>
                <polygon id="Path" fill="#231F1F" points="111.6458 21.6112 106.7978 32.6858 102.2396 32.678 107.0806 21.6112"></polygon>
                <path d="M114.424,21.6112 L118.6096,21.6112 L117.4326,23.9646 C117.4326,23.9646 117.4622,24.1436 117.6264,23.9646 C117.7904,23.7858 119.5702,21.47 123.346,21.47 C127.1222,21.47 126.921,24.158 126.3402,25.618 C125.7598,27.0776 123.3316,32.6858 123.3316,32.6858 L118.759,32.6858 L121.4996,26.512 C121.4996,26.512 122.3786,24.6498 120.159,24.6498 C117.9394,24.6498 116.9122,26.3924 116.5394,27.2712 C116.1666,28.15 114.1414,32.6856 114.1414,32.6856 L109.598,32.6856 L114.424,21.6112 Z" id="Path" fill="#231F1F"></path>
                <path d="M139.701,22.0876 C139.701,22.0876 133.1174,20.4192 130.4662,22.2366 C127.8146,24.054 128.083,25.9158 129.0806,26.6902 C130.0782,27.4648 130.9872,27.8074 131.404,27.986 C131.8212,28.1648 133.1168,29.0138 132.0744,30.0414 C131.0314,31.0692 127.4868,29.9222 126.8018,29.7732 C126.31,30.7266 125.6104,32.2458 125.6104,32.2458 C125.6104,32.2458 132.73,33.8394 135.158,32.0968 C137.5858,30.3542 137.824,27.8664 135.7834,26.9426 C133.7432,26.0194 132.849,25.9148 133.2962,24.5742 C133.7426,24.1572 133.9364,23.1146 138.6134,24.4254 C138.9712,23.7558 139.701,22.0876 139.701,22.0876 Z" id="Path" fill="#231F1F"></path>
                <path d="M77.499,17.753 L75.9198,20.9406 C75.9198,20.9406 69.6044,20.0322 67.1912,23.845 C64.7788,27.658 66.8488,30.6518 72.3452,29.4752 C71.6152,31.1582 71.0194,32.5136 71.0194,32.5136 C71.0194,32.5136 61.3228,33.7052 61.1738,27.6728 C61.3226,25.2598 61.8444,23.2042 64.9422,20.4488 C68.0406,17.6938 73.3876,17.1576 77.499,17.753 Z" id="Path" fill="#231F1F"></path>
                <path d="M83.383,21.4082 C76.0986,20.807 74.0236,26.1214 73.644,27.004 C73.2644,27.8864 72.0326,32.8408 79.2714,32.8264313 C86.401,32.8134 88.0972,27.1296 88.3428,25.6552 C88.5662,21.2954 83.383,21.4082 83.383,21.4082 Z M82.4658,28.7654 C81.1314,30.2192 79.2462,30.66 78.254,29.7494 C77.2618,28.8392 77.5388,26.9232 78.8732,25.469 C80.2068,24.0152 82.1674,23.6054 83.1592,24.5156 C84.1514,25.4258 83.7998,27.3116 82.4658,28.7654 Z" id="Shape" stroke="#000000" stroke-width="0.5" fill="#000000"></path>
                <path d="M27.9604,3.7964 C20.6764,3.1952 18.6016,8.5094 18.2216,9.392 C17.8422,10.2748 16.6102,15.2292 23.8494,15.2150305 C30.9786,15.2016 32.675,9.518 32.9202,8.0432 C33.1436,3.6834 27.9604,3.7964 27.9604,3.7964 Z M27.0438,11.1534 C25.7094,12.6074 23.824,13.0476 22.832,12.1376 C21.84,11.227 22.117,9.3112 23.4508,7.8572 C24.785,6.4032 26.7452,5.9936 27.7372,6.9036 C28.729,7.8138 28.3774,9.6996 27.0438,11.1534 Z" id="Shape" stroke="#000000" stroke-width="0.5" fill="#000000"></path>
                <path d="M10.1732,2.575 C10.1732,2.575 12.2248,2.5456 12.3624,2.575 C12.5,2.6048 14.3064,2.575 14.3064,4.4 C14.3064,6.1796 12.9954,7.0436 11.0962,7.0436 C9.197,7.0436 8.1542,7.0436 8.1542,7.0436 L10.1732,2.575 Z" id="Path" stroke="#000000" stroke-width="0.5" fill="#FFFFFF"></path>
            </g>
        </g>
    </g>
</svg>