<?xml version="1.0" encoding="UTF-8"?>
<svg width="165px" height="44px" viewBox="0 0 165 44" version="1.1" xmlns="http://www.w3.org/2000/svg" xmlns:xlink="http://www.w3.org/1999/xlink">
    <!-- Generator: Sketch 62 (91390) - https://sketch.com -->
    <title>Oaktree</title>
    <desc>Created with Sketch.</desc>
    <g id="Page-1" stroke="none" stroke-width="1" fill="none" fill-rule="evenodd">
        <g id="Extra-Large-Desktop/1440" transform="translate(-866.000000, -1396.000000)" fill-rule="nonzero">
            <g id="Oaktree" transform="translate(866.200000, 1396.000000)">
                <path d="M0.06804,21.9006 C0.06804,9.85716 12.30912,0.09588 27.40956,0.09588 C42.5106,0.09588 54.75144,9.85716 54.75144,21.9006 C54.75144,33.94272 42.5106,43.70412 27.40956,43.70412 C12.30912,43.70412 0.06804,33.9426 0.06804,21.9006 M30.35064,30.47352 C30.99048,29.9262 32.02908,29.60988 32.40504,29.60988 C32.78112,29.60988 34.14,28.7856 32.90736,28.73928 C32.43804,28.722 32.52672,27.86676 32.04744,27.8621795 C31.58076,27.85848 31.51548,28.36164 31.16316,28.6662 C30.83952,28.94484 30.63492,29.0082 30.31056,29.35344 C30.0294,29.65116 30.00912,30.02664 30.0624,30.177 C30.2058,30.58248 30.20916,30.1134 30.35064,30.47352 M32.35884,30.24456 C33.45984,30.37668 33.6264,30.89988 34.149,30.79476 C34.67076,30.6906 35.81568,30.20388 35.193,30.27288 C34.25328,30.37632 33.55416,29.42412 33.55416,29.42412 C33.09792,30.08292 32.35884,30.24456 32.35884,30.24456 M30.18888,27.38316 C30.0444,27.52656 29.9292,27.48912 29.74608,27.8658 C29.5626,28.24152 29.33688,28.77456 29.33688,28.77456 C29.33688,28.77456 29.99904,28.59732 30.25968,28.35948 C30.4374,28.197 30.77904,27.90696 30.9678,27.816 C31.17456,27.7158 31.3368,27.42852 31.11,27.30432 C30.88308,27.17772 30.84216,27.51696 30.58308,27.45288 C30.44436,27.41904 30.31236,27.26124 30.18888,27.38316 M25.64148,28.08 L25.89528,28.89612 C26.03292,29.25516 26.08896,29.61624 25.70952,29.98152 C25.30656,30.37116 24.77832,30.35988 24.40188,30.08676 C23.8092,29.65584 24.06936,28.749 24.53484,28.13592 C24.53484,28.13592 24.25188,27.44124 24.2958,27.28524 C24.34764,27.10248 24.61944,26.38524 24.85236,26.8218 C25.086,27.2592 25.4442,27.44124 25.64148,28.08 M23.17224,30.29904 C23.01432,30.20388 22.67628,30.57408 22.18512,30.43932 C21.7482,30.31932 21.6306,30.2196 21.45636,30.4596 C21.01656,31.06416 20.78388,30.53628 20.60928,30.4596 C20.33064,30.22764 20.93016,29.88204 21.50292,29.59476 C21.92028,29.38632 21.64656,28.57428 22.15212,28.57428 C22.34304,28.57428 22.30152,29.04768 22.71852,28.86264 C23.10852,28.68912 22.91304,29.44692 22.91304,29.44692 L23.06664,29.55888 C23.21124,29.4672 23.32416,29.43516 23.44968,29.52636 C23.6034,29.63808 23.75664,30.05964 24.14412,30.34128 C24.24696,30.41412 24.35436,30.4752 24.46536,30.52692 C24.58452,30.58056 23.70732,30.62028 23.17224,30.29904 M27.62784,39.32832 C28.49928,39.1824 29.80644,39.90912 31.11276,39.76416 C32.42016,39.61932 31.90152,39.37008 31.90152,39.37008 C31.90152,39.37008 30.75288,39.16056 30.0222,38.01228 C29.2908,36.86292 29.39532,33.31248 29.709,32.58132 C30.0222,31.85112 30.96204,31.43304 30.96204,31.43304 C30.96204,31.43304 32.21496,31.74588 32.63292,31.6416 L34.09488,31.95444 C34.09488,31.95444 33.99036,32.58132 34.5126,32.79096 C35.03424,32.99952 35.97444,33.20724 36.6006,32.99952 C37.22784,32.79096 36.91392,32.26812 37.43676,32.26812 C37.95852,32.26812 38.27172,33.10368 38.7942,33.41556 C39.31584,33.72936 39.2118,33.31212 39.8382,33.72936 C40.46508,34.1472 41.09088,34.46148 41.61336,34.04292 C42.13548,33.62568 41.92656,33.41544 42.13548,32.99916 C42.3444,32.58096 43.0752,32.26776 42.9708,31.85076 C42.86664,31.43268 42.44928,31.11864 42.65796,30.59712 C42.86664,30.07464 43.38888,29.34396 43.38888,29.34396 C43.38888,29.34396 44.32884,29.34396 44.74632,29.13552 C45.16416,28.92648 45.47748,29.03112 45.05976,28.5084 C44.64192,27.98676 44.43348,27.46428 44.43348,27.46428 C44.43348,27.46428 45.16416,26.9418 45.05976,26.52516 C44.95524,26.10732 45.05976,26.21136 45.47724,25.79388 C45.8952,25.3764 45.3732,25.16664 45.3732,24.54108 C45.3732,23.91372 45.47724,23.60064 45.7908,23.39232 C46.10352,23.18328 45.8952,22.76592 46.52184,22.66104 C47.14836,22.55664 47.0886,22.22568 47.29752,21.80772 C47.50644,21.39024 46.93932,20.781 46.41696,20.46852 C45.8952,20.15472 46.41696,19.7364 45.68604,19.63272 C44.95512,19.5282 44.7462,20.259 44.7462,19.63272 C44.7462,19.00584 44.95512,18.38016 44.95512,18.38016 C44.95512,18.38016 45.05964,18.1704 44.43336,17.64828 C43.80636,17.1258 43.91088,17.02152 43.38864,17.02152 C42.8664,17.02152 42.24024,17.1258 41.92656,16.60392 C41.61336,16.08216 42.55332,16.18656 42.13524,15.66408 C41.71764,15.14232 41.40408,15.24672 41.09088,14.72424 C40.77792,14.20176 41.09088,13.7844 40.569,13.57548 C40.04676,13.36716 40.04676,13.36716 39.3156,13.57548 C38.58468,13.7844 38.2716,13.99356 38.37564,13.47108 C38.4804,12.94908 38.68932,13.05324 38.68932,12.53184 C38.68932,12.00924 39.10692,11.90508 38.89848,11.27808 C38.68932,10.65132 38.4804,10.54752 38.4804,10.12968 C38.4804,9.71256 38.37576,10.0254 38.06268,9.60816 C37.74984,9.18996 38.2716,8.87616 37.6452,8.66748 C37.01844,8.4588 36.288,8.87616 36.07872,8.4588 C35.87004,8.04108 35.87004,7.83252 35.45208,7.5186 C35.03412,7.20564 34.82556,7.5186 34.40832,6.99648 C33.99024,6.47496 33.7812,6.78804 33.468,6.37068 C33.1548,5.95248 33.57276,6.16116 33.1548,5.63952 C32.73732,5.11608 32.5284,5.32572 32.0058,5.01228 C31.4844,4.69884 31.4844,4.17684 30.85752,4.28112 C30.23124,4.386 30.1266,4.386 30.1266,4.908 C30.1266,5.43 29.60472,5.7438 30.23124,5.95248 C30.85752,6.16116 31.275,6.57936 30.753,6.57936 C30.23124,6.57936 30.23124,6.47496 29.81352,6.26544 C29.39568,6.05688 29.08224,5.7438 28.56012,5.53524 C28.03836,5.32572 28.35168,6.16116 27.62028,5.84832 C26.88912,5.53524 27.30744,5.43 26.78496,5.01228 C26.26308,4.59492 26.36748,4.49028 25.7406,4.28112 C25.11396,4.07256 25.11396,3.8634 24.48768,4.17684 C23.86092,4.49028 24.17472,4.386 23.44404,4.59492 C22.7124,4.80372 22.39908,4.69884 22.60812,5.22144 C22.8168,5.7438 22.92156,5.95248 22.39908,6.26544 C21.87744,6.57936 22.19052,7.20564 21.77268,6.99648 C21.3552,6.78804 21.04152,7.10052 20.83284,6.47496 C20.62404,5.84832 20.99232,5.7924 20.7288,5.53524 C20.33748,5.15256 20.20656,6.05688 19.47552,6.16116 C18.74472,6.26544 19.16208,6.37068 18.74472,6.78804 C18.32676,7.20564 19.78836,7.31004 18.53544,7.83252 C17.28252,8.35368 17.38728,7.83252 16.96908,8.35368 C16.55148,8.87616 16.7604,8.98044 16.13364,9.18996 C15.50736,9.39852 15.71568,9.08472 15.08916,9.71256 C14.46276,10.33788 14.14956,10.2336 14.14956,10.86048 C14.14956,11.48676 14.56716,11.48676 14.04528,11.90508 C13.52292,12.3222 13.62732,12.63528 13.94076,13.15776 C14.25384,13.68012 14.98476,14.51556 14.14956,14.20176 C13.31412,13.8888 13.10532,13.57548 13.00092,13.99356 C12.89616,14.4108 12.47868,14.307 12.26952,15.03732 C12.06096,15.76932 12.26952,15.24672 12.37416,15.97812 C12.47868,16.70868 13.05096,16.63788 11.7918,16.83732 C11.1906,16.93248 11.53896,17.23104 10.80804,17.43924 C10.07664,17.64828 9.6594,17.43924 9.55464,17.96172 C9.45036,18.4842 9.86784,18.79716 9.34596,19.11012 C8.82372,19.42356 8.92848,19.52808 8.6148,20.1546 C8.30148,20.781 7.7796,21.09396 7.7796,21.72168 C7.7796,22.34772 8.40588,22.45296 7.88424,23.079 C7.36176,23.7048 7.36176,23.7048 7.7796,24.33156 C8.19708,24.95856 8.71932,25.06284 8.71932,25.68984 C8.71932,26.31624 8.51052,26.62932 8.92824,27.1518 C9.34572,27.67356 10.39032,27.882 9.76344,28.40436 C9.1374,28.92672 9.45036,28.71816 8.82372,29.13576 C8.19708,29.55348 7.67484,29.23992 8.09256,29.97168 C8.51028,30.70212 8.92824,30.28404 8.92824,31.11912 C8.92824,31.95456 9.24168,31.95468 9.97248,32.26836 C10.70352,32.5812 10.9122,33.62628 11.43444,33.31236 C11.95692,32.99976 11.95692,32.79084 12.37416,33.52188 C12.79212,34.25208 13.10532,34.8792 13.41864,34.25208 C13.73184,33.62628 13.94076,33.7296 14.35824,33.52188 C14.77584,33.31236 14.35824,33.1038 15.08916,33.1038 C15.81996,33.1038 15.81996,33.52188 16.34256,33.20712 C16.86456,32.8944 16.44672,32.47692 17.07372,32.5812 C17.69976,32.68644 17.80452,32.68644 17.9088,33.10368 C18.0132,33.52176 17.9148,33.7362 18.54168,33.7362 C19.16832,33.7362 19.34736,32.87136 19.45164,33.39276 C19.55544,33.91464 20.07816,34.437 20.49552,34.33248 C20.91324,34.22832 21.33132,34.6464 21.22656,33.91464 C21.12204,33.18444 21.56376,33.52212 21.6684,32.99988 C21.77268,32.4774 21.66096,32.16888 21.97092,31.79868 C22.3326,31.36596 23.33928,31.32888 23.33928,31.32888 C23.33928,31.32888 24.48744,31.11936 25.32312,32.16432 C26.15856,33.20724 26.25504,34.21728 26.26308,35.61036 C26.268,36.51708 26.3406,37.11708 25.89468,37.90788 C25.47768,38.64744 24.25356,39.33996 24.25356,39.33996 C24.25356,39.33996 23.79156,39.75084 24.579,39.76452 C25.28232,39.77712 27.21732,39.39672 27.62784,39.32832 M28.70832,25.32684 C28.95696,25.57452 29.62356,25.44828 29.95464,25.40772 C30.28548,25.36608 30.23712,25.85916 30.20988,26.17296 C30.1806,26.505 29.7126,26.86764 29.7126,26.86764 L29.55816,26.75544 C29.42436,26.87544 29.28396,26.85696 29.18736,26.78592 C29.11872,26.73648 29.0628,26.66484 29.03568,26.60388 C28.92816,26.37036 28.67952,26.12784 28.55436,26.03688 C28.28544,25.84056 27.96672,25.74516 27.63288,25.74144 C27.63312,25.7418 28.46052,25.07808 28.70832,25.32684 M27.42636,28.34088 L27.10536,27.42552 C26.99148,27.07296 26.86944,26.73696 27.24888,26.37132 C27.57276,26.05836 28.01904,26.06112 28.31532,26.27724 C28.84548,26.66208 28.68216,27.50484 28.26528,28.07172 C28.26528,28.07172 28.40508,28.1928 28.33836,28.32696 C28.25052,28.50468 28.09236,28.93032 27.9228,28.99944 C27.75264,29.06916 27.55428,29.3568 27.51876,29.49816 C27.42456,29.8752 27.58992,28.79544 27.42636,28.34088 M23.30496,27.28212 C23.17896,27.38796 23.79936,27.54924 23.48292,27.67116 C23.166,27.79212 22.9866,28.25436 22.9866,28.25436 C22.9866,28.25436 21.96648,27.87612 22.17708,27.68232 C22.31976,27.54984 21.50436,26.84004 21.59184,26.6934 C21.68712,26.53452 22.76196,26.82552 22.79544,27.03912 C22.81368,27.15372 23.41272,27.19068 23.30496,27.28212" id="Shape" fill="#000000"></path>
                <path d="M75.23268,15.42744 C74.0544,14.22996 72.453,13.62348 70.47312,13.62348 C68.34276,13.62348 66.57936,14.30748 65.22684,15.657 C63.86916,17.00436 63.18288,18.75252 63.18288,20.85276 C63.18288,23.08488 63.78048,24.83784 64.95912,26.0592 C66.13836,27.28056 67.76292,27.90276 69.78108,27.90276 C71.9322,27.90276 73.69344,27.22104 75.0162,25.87716 C76.33632,24.53268 77.0076,22.6812 77.0076,20.37144 C77.0076,18.28728 76.41096,16.62468 75.23268,15.42744 M74.21148,23.96364 C73.85088,24.87732 73.31628,25.57824 72.62436,26.05092 C71.93184,26.5212 71.1246,26.7588 70.22424,26.7588 C68.86392,26.7588 67.72296,26.24292 66.83244,25.22832 C65.93712,24.2046 65.48316,22.64088 65.48316,20.58036 C65.48316,19.52532 65.65932,18.51708 66.0066,17.58708 C66.35148,16.67544 66.88908,15.97008 67.61064,15.48924 C68.33436,15.01104 69.16848,14.7672 70.0902,14.7672 C70.9296,14.7672 71.69628,14.96868 72.3618,15.36096 C73.03008,15.75648 73.60212,16.42212 74.05932,17.34372 C74.52156,18.2688 74.7541202,19.45512 74.7541202,20.86644 C74.75436,21.99468 74.5728,23.03412 74.21148,23.96364" id="Shape" fill="#231F20"></path>
                <path d="M91.95192,26.532 C90.86724,26.21724 90.69048,26.13432 90.66072,26.11452 L90.39324,25.80252 L88.28784,21.2106 C87.11436,18.58884 86.10444,16.197 85.28592,14.09688 L85.2486,13.99728 L84.471,13.99728 L81.93996,19.86648 C80.54568,23.08464 79.66608,25.0194 79.32396,25.61496 C79.17456,25.86408 79.02984,26.04516 78.89328,26.14932 C78.70944,26.28564 78.34884,26.4144 77.82168,26.53176 L77.70108,26.55552 L77.70108,27.37644 L79.91916,27.26916 L82.25268,27.3732 L82.25508,27.2136 L82.25508,26.56644 L81.86244,26.451 C81.04812,26.27772 80.88468,26.21364 80.85288,26.19168 C80.80692,26.1648 80.80692,26.14092 80.80692,26.1282 C80.80692,26.10984 80.8206,25.99692 81.03132,25.497 C81.03132,25.497 81.76404,23.73624 81.93972,23.30868 C82.12752,23.30868 84.3162,23.2932 84.3162,23.2932 C84.3162,23.2932 86.53428,23.30868 87.00708,23.30868 C87.0816,23.48184 87.88956,25.41468 87.88956,25.41468 C88.04172,25.7832 88.06536,25.94184 88.06536,25.9998 C88.06536,26.04516 88.0518,26.1144 87.94536,26.19468 C87.90276,26.22708 87.69108,26.32788 86.73204,26.52876 L86.60904,26.55552 L86.60904,27.3732 L89.47896,27.26916 L92.05824,27.3732 L92.06064,27.2136 L92.06064,26.56644 M83.98812,22.1196 C83.98812,22.1196 82.76964,22.09608 82.42464,22.08792 C82.57704,21.7242 84.22884,17.79552 84.46932,17.22324 C84.70956,17.79252 86.36892,21.7212 86.52408,22.08792 C86.13612,22.09308 83.98812,22.1196 83.98812,22.1196" id="Shape" fill="#231F20"></path>
                <path d="M101.73072,14.36904 L101.73072,15.01908 L102.05412,15.10632 C102.78348,15.25956 102.93048,15.33432 102.96024,15.35604 C102.98388,15.37392 102.99192,15.399 102.99192,15.4248 C102.99192,15.48432 102.93828,15.67956 102.43596,16.19736 C100.95312,17.72892 99.465,19.09692 98.00328,20.2998 C98.01036,19.74696 98.04528,17.41932 98.04528,17.41932 C98.06664,15.9168 98.09424,15.65472 98.10156,15.61212 C98.10504,15.6144 98.22744,15.44136 98.22744,15.44136 C98.2542,15.42468 98.44428,15.34992 99.55872,15.13392 L100.07388,15.02676 L100.07388,14.20896 L97.42572,14.30268 L96.86232,14.31048 L93.9258,14.20896 L93.92184,14.36904 L93.92184,15.02676 L94.4544,15.13668 C95.4006,15.2964 95.75304,15.42756 95.8848,15.51096 L95.88108,15.51096 C95.88108,15.51336 95.94276,15.59364 95.94276,15.59364 C95.94864,15.60912 95.97528,15.71904 95.97528,16.30404 L96.02052,21.22944 L95.95164,25.55112 C95.93592,26.0058 95.85456,26.0988 95.83908,26.11296 C95.79972,26.1498 95.58528,26.2782 94.48632,26.43876 L93.92028,26.55624 L93.92244,26.68188 L93.92244,27.37428 L97.15068,27.27 L100.0698,27.37428 L100.07448,27.21468 L100.07448,26.5566 L99.9498,26.52984 C99.59148,26.4606 98.49552,26.23896 98.32704,26.18244 C98.19972,26.13672 98.11068,26.08092 98.07624,26.01672 C98.06544,25.99464 98.02284,25.89864 98.02284,25.44216 C98.02284,25.44216 98.00616,22.22952 98.00148,21.16356 C98.34084,21.48912 99.0702,22.19256 99.0702,22.19256 C101.19996,24.20688 102.49932,25.48224 102.9318,25.97904 C103.05972,26.12364 103.06584,26.18556 103.06584,26.19564 C103.06584,26.21784 103.04424,26.2434 103.0044,26.27604 C102.97464,26.29728 102.82536,26.36364 102.08988,26.5326 L101.96988,26.55948 L101.96988,27.37464 L105.276,27.27048 L108.30384,27.37464 L108.30624,27.21504 L108.30624,26.55696 L108.18384,26.53308 C107.064,26.28708 106.42152,26.12688 106.21632,26.04648 C106.21632,26.04408 105.64632,25.71048 105.64632,25.71048 C105.65544,25.71792 102.7476,23.0448 102.7476,23.0448 C101.43036,21.8076 100.51536,20.91504 99.92832,20.30076 C100.12056,20.13012 100.9218,19.4214 100.9218,19.4214 C100.9218,19.41888 103.38624,17.17356 103.38624,17.17356 C103.38876,17.17128 104.98464,15.675 104.98464,15.675 C104.97108,15.68508 105.38196,15.45024 105.38196,15.45024 C105.49464,15.40452 105.83964,15.29556 106.8606,15.05184 L106.98108,15.02508 L106.98108,14.21004 L104.1084,14.31156 L101.73648,14.21004" id="Path" fill="#231F20"></path>
                <path d="M109.69272,14.35884 L109.37112,18.0468 L109.54032,18.04908 L110.36316,18.04908 L110.39016,17.93184 C110.6004,17.05812 110.75832,16.49076 110.85468,16.2504 C110.97216,15.95388 111.1062,15.75648 111.24516,15.6738 C111.28764,15.64428 111.41808,15.58524 111.84348,15.58524 L112.23912,15.57756 L114.24072,15.57756 C114.24372,15.85764 114.27516,19.71456 114.27516,19.71456 L114.23784,24.00672 C114.21648,25.68432 114.18672,25.93896 114.17616,25.9734 L114.1044,26.1018 C114.06132,26.1342 113.83392,26.23848 112.7436,26.41956 L112.1286,26.55852 L112.13376,26.68116 L112.13376,27.37368 L115.02312,27.2694 L118.38036,27.37368 L118.38504,27.21408 L118.38504,26.55588 L117.86472,26.44668 C116.67456,26.21424 116.47224,26.1144 116.4372,26.088 C116.41356,26.06676 116.36784,26.0058 116.35464,25.82676 C116.30844,25.05948 116.28432,23.56332 116.28432,21.37428 C116.28432,21.37428 116.352,15.84984 116.35464,15.56412 L118.21416,15.56412 C119.0352,15.56412 119.28624,15.62832 119.36124,15.6684 C119.49132,15.73308 119.5884,15.84468 119.66052,16.00164 C119.71344,16.12824 119.85252,16.5666 120.20496,17.93196 L120.23472,18.0492 L121.19712,18.0492 L120.90348,14.21448 L120.75348,14.21448 L115.5738,14.31048 L109.70484,14.2122" id="Path" fill="#231F20"></path>
                <path d="M137.13852,26.53188 C136.35036,26.3586 135.7866,26.20344 135.46092,26.07492 C135.2334,25.9896 135.0522,25.88856 134.91792,25.77588 C134.86008,25.72236 134.69172,25.53528 134.23944,24.93936 C134.23944,24.93936 131.94096,21.94848 131.36184,21.19524 C131.94984,21.01848 132.42264,20.826 132.762,20.60172 C133.28508,20.24916 133.69152,19.81056 133.96716,19.29996 C134.24508,18.78768 134.38692,18.1914 134.38692,17.5284 C134.38692,16.53132 134.07384,15.72936 133.4562,15.13944 C132.83412,14.55864 131.907,14.26524 130.6986,14.26524 L129.37116,14.29476 L127.82808,14.31036 L123.8442,14.21208 L123.8412,14.36904 L123.8412,15.02664 L124.37796,15.13944 C125.01756,15.24372 125.46408,15.36888 125.73588,15.51888 L125.835,15.63864 C125.84604,15.67572 125.87064,15.85476 125.87808,16.72164 L125.91576,20.97864 C125.89344,24.59676 125.87808,25.50072 125.87028,25.62084 C125.85624,25.84752 125.80212,26.0058 125.7198,26.08056 C125.67696,26.12064 125.46336,26.23296 124.3518,26.44872 L123.84084,26.55588 L123.84084,27.3738 L126.98376,27.26952 L130.01136,27.3738 L130.01652,27.2142 L130.01652,26.55588 L129.387,26.41968 C128.4246,26.24268 128.16804,26.12268 128.09796,26.06388 C128.037,26.00856 127.99956,25.90872 127.98852,25.76724 C127.98852,25.76724 127.93272,22.17792 127.92216,21.39516 C128.18628,21.41352 129.17796,21.4866 129.30288,21.49392 C129.387,21.60648 131.24676,24.16092 131.24676,24.16092 L131.42796,24.39636 C131.42544,24.39372 132.26472,25.59864 132.26472,25.59864 L133.41204,27.36864 L133.51584,27.366 L135.03132,27.26676 L137.256,27.37668 L137.25924,27.2142 L137.25924,26.55588 M129.20952,20.3934 C129.20952,20.3934 128.14872,20.32092 127.91856,20.30532 C127.92156,20.03772 127.96656,15.83088 127.96968,15.56388 C128.21292,15.55056 129.69636,15.46524 129.69636,15.46524 C130.53468,15.46524 131.18232,15.6738 131.61828,16.08564 C132.04764,16.49364 132.267,17.06316 132.267,17.77692 C132.267,18.59748 132.01908,19.24644 131.52684,19.70076 C131.03748,20.16084 130.25652,20.3934 129.20952,20.3934" id="Shape" fill="#231F20"></path>
                <path d="M138.9408,14.36904 L138.9408,15.02412 L140.025,15.26784 C140.66364,15.41436 140.7804,15.468 140.80572,15.48084 L140.90976,15.59352 C140.92236,15.62028 140.96928,15.81516 140.98548,16.90788 L141.00396,20.74008 L140.9922,23.15592 L140.94108,25.28352 L140.94108,25.44996 C140.94108,25.8774 140.87856,26.0214 140.83956,26.06964 C140.83704,26.07456 140.78304,26.13072 140.48748,26.21424 C140.4948,26.211 139.03548,26.53176 139.03548,26.53176 L138.91548,26.55576 L138.91548,27.37104 L143.27232,27.26916 L149.39964,27.37104 L149.44044,27.2616 L150.6294,23.68308 L150.41496,23.67768 L149.7222,23.67768 L149.45952,24.1272 C148.9884,24.96888 148.67112,25.48176 148.50444,25.64928 C148.34784,25.81584 148.16832,25.93128 147.95364,26.00604 C147.89316,26.02428 147.67872,26.0592 147.01968,26.0592 L146.67888,26.06664 L143.01348,26.06664 C143.01348,25.7838 142.97244,21.32532 142.96968,21.04008 L145.31736,21.04008 C146.3052,21.04008 146.55672,21.099 146.61792,21.12588 C146.73108,21.17352 146.808,21.24816 146.85276,21.3552 C146.86752,21.38988 146.9364,21.60408 147.17484,22.80144 L147.19752,22.92396 L148.09008,22.92396 L147.98856,20.47308 L148.09008,18.0066 L147.92784,18.00396 L147.20568,18.00396 L147.09156,18.43968 C146.92188,19.2522 146.81736,19.52544 146.76276,19.6074 C146.68776,19.71684 146.59356,19.78944 146.47308,19.82664 C146.39568,19.84848 146.0988,19.88784 145.0068,19.88784 L142.95012,19.88784 C142.95624,19.62636 142.97568,18.26904 142.97568,18.26904 C142.97568,18.26904 143.02344,16.10136 143.03664,15.51324 L146.58012,15.51324 C147.40296,15.51324 147.73164,15.57156 147.86376,15.62052 C147.97812,15.66576 148.0794,15.76728 148.16184,15.91692 C148.31328,16.179 148.50636,16.7136 148.74708,17.50476 L148.77876,17.61348 L149.69964,17.61348 L149.6778,17.4372 C149.544,16.43556 149.47152,15.40068 149.46096,14.36676 L149.45856,14.2122 L143.15292,14.31048 C141.60108,14.31048 140.238,14.27904 139.1022,14.21448 L138.93972,14.2062" id="Path" fill="#231F20"></path>
                <path d="M152.76264,14.36904 L152.76264,15.02412 L153.84828,15.26784 C154.48668,15.41436 154.6074,15.468 154.62708,15.48084 L154.7316,15.59064 C154.7478,15.63084 154.79412,15.84456 154.80984,16.908 L154.82532,20.7402 L154.81692,23.15604 L154.76628,25.28364 L154.76628,25.45008 C154.76628,25.87752 154.70328,26.02152 154.66476,26.06976 C154.662,26.07216 154.60716,26.13084 154.3122,26.21436 C154.31664,26.21112 152.86092,26.53188 152.86092,26.53188 L152.73792,26.55588 L152.73792,27.37116 L157.09428,27.26928 L163.22436,27.37116 L163.26516,27.26172 L164.45208,23.6832 L164.23968,23.6778 L163.5492,23.6778 L163.28412,24.12456 C162.69888,25.17204 162.44196,25.53264 162.32712,25.6494 C162.16944,25.81596 161.9898,25.93296 161.778,26.00616 C161.71728,26.0244 161.50284,26.05932 160.84452,26.05932 L160.50204,26.06676 L156.83808,26.06676 C156.83532,25.78392 156.79728,21.32544 156.79476,21.0402 L159.13896,21.0402 C160.13016,21.0402 160.3818,21.09912 160.44252,21.126 C160.55568,21.17364 160.63236,21.24828 160.68012,21.35856 C160.6986,21.4062 160.77132,21.66744 160.99884,22.80144 L161.022,22.92396 L161.91516,22.92396 L161.81184,20.47308 L161.91516,18.0066 L161.75268,18.00396 L161.03028,18.00396 L160.91844,18.43176 C160.73892,19.29228 160.63152,19.53768 160.58448,19.60752 C160.512,19.71684 160.41648,19.78944 160.29828,19.82664 C160.21716,19.84848 159.92088,19.88784 158.83416,19.88784 L156.77328,19.88784 C156.77748,19.62636 156.80004,18.26904 156.80004,18.26904 C156.80004,18.26904 156.84504,16.10136 156.85932,15.51324 L160.4028,15.51324 C161.2302,15.51324 161.55612,15.57156 161.68224,15.62052 C161.80224,15.66576 161.90064,15.76452 161.9862,15.91692 C162.13692,16.18176 162.33168,16.7136 162.56868,17.50476 L162.6012,17.61348 L163.52352,17.61348 L163.49844,17.4372 C163.36584,16.43268 163.29288,15.39888 163.28604,14.36904 L163.28328,14.2122 L156.97956,14.31048 C155.42616,14.31048 154.06272,14.27904 152.92392,14.21448 L152.76144,14.2062" id="Path" fill="#231F20"></path>
            </g>
        </g>
    </g>
</svg>