<?xml version="1.0" encoding="UTF-8"?>
<svg width="105px" height="52px" viewBox="0 0 105 52" version="1.1" xmlns="http://www.w3.org/2000/svg" xmlns:xlink="http://www.w3.org/1999/xlink">
    <!-- Generator: Sketch 62 (91390) - https://sketch.com -->
    <title>VSP</title>
    <desc>Created with Sketch.</desc>
    <g id="Page-1" stroke="none" stroke-width="1" fill="none" fill-rule="evenodd">
        <g id="Extra-Large-Desktop/1440" transform="translate(-527.000000, -1386.000000)" fill="#000000" fill-rule="nonzero">
            <g id="VSP" transform="translate(527.600000, 1386.000000)">
                <path d="M11.33895,41.81625 C11.3799,41.7368 11.41315,41.6479 11.4373,41.55515 L11.33895,41.81625 Z" id="Path"></path>
                <path d="M37.4192,9.5158 C40.0162,8.1032 43.21625,9.1665 44.56865,11.88915 C45.91615,14.6139 44.90255,17.96935 42.29995,19.38265 C39.70295,20.79385 36.498,19.73055 35.14945,17.0058 C33.80125,14.2814 34.81765,10.9284 37.4192,9.5158" id="Path"></path>
                <path d="M32.0642,0.1323 C33.64585,-0.10885 35.11235,1.0423 35.33705,2.70095 C35.56455,4.35575 34.46345,5.89295 32.88495,6.13095 C31.3033,6.36685 29.83295,5.2178 29.61105,3.55915 C29.3825,1.9026 30.4836,0.36715 32.0642,0.1323" id="Path"></path>
                <path d="M11.508,41.81625 C11.54895,41.7368 11.58255,41.6479 11.606,41.55515 L11.508,41.81625 Z" id="Path"></path>
                <path d="M60.4541,27.2349 C59.24415,24.549 57.11265,22.5197 54.4474,21.5138 C51.7811,20.51245 48.9041,20.65805 46.34175,21.9212 C43.7787,23.184 41.83795,25.42015 40.88175,28.21245 C40.39385,29.63345 40.2787,31.8801 40.27205,33.20485 L40.27205,51.793 L41.64405,51.793 C42.45815,51.793 42.8533,51.30895 42.8533,50.5316 L42.8533,39.2371 C44.0279,40.6658 45.5364,41.76235 47.27345,42.4179 C49.9387,43.42065 52.8192,43.27575 55.38295,42.0077 C57.94425,40.747 59.88185,38.5119 60.84085,35.71925 C61.79775,32.9287 61.6595,29.91485 60.4541,27.2349 M58.67645,34.9055 C57.9264,37.0944 56.4095,38.8437 54.4033,39.8335 C52.3929,40.8261 50.13715,40.9395 48.05115,40.152 C45.9634,39.3673 44.5319,37.77725 43.589,35.6734 C42.64085,33.57235 42.5313,31.21125 43.28275,29.02515 C44.03315,26.83835 45.3124,25.08765 47.32,24.0975 C49.32655,23.1056 51.58195,22.99395 53.6697,23.7783 C55.75675,24.5651 57.42835,26.15375 58.37615,28.25795 C59.32185,30.36005 59.4265,32.7187 58.67645,34.9055" id="Shape"></path>
                <path d="M24.31205,26.96365 C24.31205,24.79855 26.68295,23.6439 28.53095,23.62955 C30.58755,23.611 31.57595,24.15945 32.71345,25.58535 C33.12715,26.1016 33.61295,26.3102 34.23315,25.91155 L35.53795,25.09815 C35.5229,25.06735 35.51345,25.039 35.49735,25.0075 C34.90025,23.8217 34.05675,22.9481 33.0183,22.31915 C31.77825,21.57015 30.2673,21.19215 28.53095,21.19215 C25.26055,21.19215 21.73115,23.1315 21.73115,27.19045 C21.73115,35.12145 33.52545,31.1094 33.52545,36.83575 C33.52545,39.2224 31.20005,40.66685 28.96075,40.66685 C27.006,40.66685 25.1076,39.9 23.7279,38.18465 C23.2085,37.5851 22.70415,37.597 22.0878,38.0226 C22.0703,38.03485 20.9132,38.86365 20.9132,38.86365 C20.92755,38.89165 20.94435,38.9151 20.958,38.94275 C21.57645,40.06205 22.4259,40.9451 23.43425,41.60485 C24.97355,42.61355 26.8835,43.10215 28.92015,43.10215 C32.7054,43.10215 36.1067,40.93705 36.1067,36.65515 C36.10705,28.22505 24.31205,32.60005 24.31205,26.96365" id="Path"></path>
                <path d="M9.81785,39.6389 L16.17035,22.4875 C16.3401,22.04615 16.69535,21.73745 17.23085,21.7405761 L19.3746,21.7405761 L11.7145,41.3518 L11.5941,41.65945 L11.5409,41.79805 C11.36905,42.22155 10.9536,42.55965 10.49335,42.55965 L9.13885,42.55965 C8.67545,42.55965 8.2593,42.21595 8.0906,41.79805 L8.0374,41.65945 L7.91665,41.3518 L0.25655,21.7405761 L2.3996,21.7405761 C2.93475,21.73745 3.29035,22.0465 3.4601,22.4875 L9.8119,39.63855 L9.81785,39.6389 L9.81785,39.6389 Z" id="Path"></path>
                <polygon id="Path" points="49.15785 51.7825 48.5149 51.7825 46.7033 46.8769 47.35395 46.8769 48.8313 51.04085 50.316 46.8769 50.9593 46.8769"></polygon>
                <path d="M52.11255,47.59125 L51.51125,47.59125 L51.51125,46.8762 L52.11255,46.8762 L52.11255,47.59125 Z M52.11255,51.7825 L51.51125,51.7825 L51.51125,48.14215 L52.11255,48.14215 L52.11255,51.7825 Z" id="Shape"></path>
                <path d="M54.48065,51.87455 C53.5962,51.87455 52.9529,51.40135 52.85455,50.63065 L53.4611,50.63065 C53.5395,51.05415 53.95705,51.3156 54.4803,51.3156 C55.0452,51.3156 55.3917,51.0405 55.3917,50.72375 C55.3917,50.4679 55.29195,50.27785 54.4019,50.15815 C53.51675,50.029 52.9802,49.81795 52.9802,49.13265 C52.9802,48.6094 53.43205,48.0515 54.40855,48.0515 C55.2496,48.0515 55.8159,48.475 55.8922,49.189 L55.2846,49.189 C55.1999,48.8019 54.8541,48.60345 54.40925,48.60345 C53.92905,48.60345 53.5815,48.8292 53.5815,49.1113 C53.5815,49.371 53.78695,49.4662 54.50025,49.5768 C55.30735,49.70525 55.97235,49.85925 55.97235,50.6856 C55.972,51.4157 55.3483,51.87455 54.48065,51.87455" id="Path"></path>
                <path d="M57.45425,47.59125 L56.8533,47.59125 L56.8533,46.8762 L57.45425,46.8762 L57.45425,47.59125 Z M57.45425,51.7825 L56.8533,51.7825 L56.8533,48.14215 L57.45425,48.14215 L57.45425,51.7825 Z" id="Shape"></path>
                <path d="M61.88735,49.97265 C61.88735,51.01915 61.09495,51.86685 60.0558,51.86685 C59.0247,51.86685 58.22565,51.01915 58.22565,49.97265 C58.22565,48.91285 59.0247,48.05045 60.0558,48.05045 C61.0953,48.05045 61.88735,48.91285 61.88735,49.97265 M61.2864,49.97265 C61.2864,49.2163 60.73655,48.60205 60.05545,48.60205 C59.38485,48.60205 58.8343,49.2163 58.8343,49.97265 C58.8343,50.7143 59.38415,51.3156 60.05545,51.3156 C60.7362,51.3156 61.2864,50.7143 61.2864,49.97265" id="Shape"></path>
                <path d="M65.69675,51.7825 L65.1035,51.7825 L65.1035,49.57015 C65.1035,49.0126 64.792,48.60205 64.21345,48.60205 C63.6636,48.60205 63.2583,49.0126 63.2583,49.5558 L63.2583,51.78285 L62.65665,51.78285 L62.65665,48.1425 L63.23835,48.1425 L63.23835,48.5394 C63.4858,48.23455 63.85925,48.0515 64.2971,48.0515 C65.18715,48.0515 65.6957,48.68675 65.6957,49.59115 L65.6957,51.7825 L65.69675,51.7825 Z" id="Path"></path>
                <path d="M69.6486,51.86685 C68.64585,51.86685 67.8265,51.01915 67.8265,49.96565 C67.8265,48.91215 68.64585,48.04975 69.6486,48.04975 C70.46305,48.04975 71.099,48.5296 71.3454,49.26635 L70.7014,49.26635 C70.49595,48.86875 70.12355,48.60135 69.6479,48.60135 C68.9773,48.60135 68.42605,49.2156 68.42605,49.96565 C68.42605,50.7143 68.9773,51.31455 69.6479,51.31455 C70.1288,51.31455 70.5047,51.04645 70.7014,50.6506 L71.3454,50.6506 C71.10495,51.3863 70.46305,51.86685 69.6486,51.86685" id="Path"></path>
                <path d="M74.60355,51.3667 C74.34245,51.6838 73.9179,51.8679 73.3537,51.8679 C72.604,51.8679 71.932,51.52805 71.932,50.74475 C71.932,49.99365 72.47765,49.6566 73.4167,49.60585 C74.30745,49.5635 74.59865,49.40075 74.59865,49.11165 C74.59865,48.82185 74.3218,48.6031 73.70755,48.6031 C73.32535,48.6031 72.82205,48.72175 72.75835,49.25235 L72.1371,49.25235 C72.17875,48.52365 72.7797,48.0494 73.7135,48.0494 C74.68965,48.0494 75.18455,48.5023 75.18455,49.18165 L75.18455,51.1882 C75.18455,51.3723 75.23285,51.64075 75.2906,51.7811 L74.69595,51.7811 C74.6487,51.6761 74.61125,51.53505 74.60355,51.3667 M74.5983,49.82425 C74.35645,50.03705 73.92665,50.08535 73.4944,50.11405 C72.7041,50.16375 72.52525,50.43955 72.52525,50.743 C72.52525,51.13885 72.9085,51.30825 73.3754,51.30825 C73.9963,51.30825 74.58395,51.0398 74.5983,50.3825 L74.5983,49.82425 L74.5983,49.82425 Z" id="Shape"></path>
                <path d="M78.0983,48.6507 C77.46865,48.615 76.93,48.9475 76.93,49.6762 L76.93,51.7832 L76.3315,51.7832 L76.3315,48.1425 L76.9097,48.1425 L76.9097,48.55235 C77.1848,48.1635 77.6797,48.00845 78.0983,48.05815 L78.0983,48.6507 L78.0983,48.6507 Z" id="Path"></path>
                <path d="M81.96265,50.65095 C81.7103,51.4304 81.0866,51.8679 80.24695,51.8679 C79.1994,51.8679 78.37865,51.03455 78.37865,49.96635 C78.37865,48.91285 79.1994,48.05045 80.2102,48.05045 C81.151,48.05045 82.05505,48.8278 82.047,50.12105 L78.98905,50.12105 C79.0643,50.87635 79.646,51.32225 80.24765,51.32225 C80.76145,51.32225 81.12965,51.0762 81.32915,50.65095 L81.96265,50.65095 Z M81.3841,49.5838 C81.2357,48.99125 80.7401,48.594 80.2102,48.594 C79.70725,48.594 79.1798,48.96255 79.0216,49.5838 L81.3841,49.5838 Z" id="Shape"></path>
                <path d="M84.96915,48.1565 L85.79445,48.1565 L85.79445,48.72805 L84.96915,48.72805 L84.96915,51.78215 L84.3731,51.78215 L84.3731,48.72805 L83.8789,48.72805 L83.8789,48.1565 L84.3731,48.1565 L84.3731,48.0151 C84.3731,47.4838 84.5166,47.0834 84.79275,46.83455 C85.0451,46.60005 85.38495,46.5094 85.80915,46.5584 L85.80915,47.10265 C85.5344,47.0834 85.3349,47.1317 85.1935,47.26505 C85.01115,47.4348 84.9695,47.76835 84.9695,48.01545 L84.9695,48.1572 L84.96915,48.1565 L84.96915,48.1565 Z" id="Path"></path>
                <path d="M89.78935,49.97265 C89.78935,51.01915 88.9959,51.86685 87.9578,51.86685 C86.92635,51.86685 86.1252,51.01915 86.1252,49.97265 C86.1252,48.91285 86.92635,48.05045 87.9578,48.05045 C88.9959,48.05045 89.78935,48.91285 89.78935,49.97265 M89.18735,49.97265 C89.18735,49.2163 88.6375,48.60205 87.95745,48.60205 C87.28615,48.60205 86.73525,49.2163 86.73525,49.97265 C86.73525,50.7143 87.28545,51.3156 87.95745,51.3156 C88.63645,51.3156 89.18735,50.7143 89.18735,49.97265" id="Shape"></path>
                <path d="M92.4399,48.6507 C91.81025,48.615 91.2716,48.9475 91.2716,49.6762 L91.2716,51.7832 L90.67275,51.7832 L90.67275,48.1425 L91.25165,48.1425 L91.25165,48.55235 C91.5271,48.1635 92.02165,48.00845 92.4399,48.05815 L92.4399,48.6507 L92.4399,48.6507 Z" id="Path"></path>
                <rect id="Rectangle" x="94.72925" y="46.5234" width="1" height="5.2591"></rect>
                <path d="M97.08895,47.59125 L96.488,47.59125 L96.488,46.8762 L97.08895,46.8762 L97.08895,47.59125 Z M97.08895,51.7825 L96.488,51.7825 L96.488,48.14215 L97.08895,48.14215 L97.08895,51.7825 Z" id="Shape"></path>
                <path d="M98.9429,48.1565 L99.76855,48.1565 L99.76855,48.72805 L98.9429,48.72805 L98.9429,51.78215 L98.34825,51.78215 L98.34825,48.72805 L97.85335,48.72805 L97.85335,48.1565 L98.34825,48.1565 L98.34825,48.0151 C98.34825,47.4838 98.49035,47.0834 98.7665,46.83455 C99.02165,46.60005 99.3587,46.5094 99.7836,46.5584 L99.7836,47.10265 C99.50815,47.0834 99.30795,47.1317 99.1683,47.26505 C98.98525,47.4348 98.94255,47.76835 98.94255,48.01545 L98.94255,48.1565 L98.9429,48.1565 Z" id="Path"></path>
                <path d="M103.6084,50.65095 C103.3529,51.4304 102.732,51.8679 101.8899,51.8679 C100.84515,51.8679 100.0251,51.03455 100.0251,49.96635 C100.0251,48.91285 100.84515,48.05045 101.8556,48.05045 C102.795,48.05045 103.70115,48.8278 103.6931,50.12105 L100.6313,50.12105 C100.7104,50.87635 101.28895,51.32225 101.8906,51.32225 C102.40755,51.32225 102.77505,51.0762 102.9714,50.65095 L103.6084,50.65095 Z M103.0267,49.5838 C102.8783,48.99125 102.3841,48.594 101.8549,48.594 C101.35195,48.594 100.82205,48.96255 100.66665,49.5838 L103.0267,49.5838 Z" id="Shape"></path>
                <path d="M62.0095,43.53125 C60.8804,43.53125 59.9662,42.6167 59.9662,41.4869 C59.9662,40.36445 60.8804,39.44885 62.0095,39.44885 C63.1393,39.44885 64.05455,40.3634 64.05455,41.4869 C64.05455,42.6167 63.13895,43.53125 62.0095,43.53125 M62.0095,39.8279 C61.1065,39.8279 60.37325,40.5734 60.37325,41.4869 C60.37325,42.40705 61.1065,43.1522 62.0095,43.1522 C62.91355,43.1522 63.6471505,42.40705 63.6471505,41.4869 C63.64785,40.5734 62.91355,39.8279 62.0095,39.8279 M63.04305,42.5656 L62.55725,42.5656 L62.15055,41.78125 L61.60385,41.78125 L61.60385,42.5593 L61.1821,42.5593 L61.1821,40.313 L62.25905,40.313 C62.73295,40.313 63.0329,40.6007 63.0329,41.0473 C63.0329,41.3693 62.8474,41.6283 62.5646,41.73015 L63.04305,42.5656 Z M62.26395,41.3924 C62.43895,41.3924 62.61395,41.30035 62.61395,41.048 C62.61395,40.79355 62.47815,40.7036 62.26395,40.7036 L61.60245,40.7036 L61.60245,41.39275 L62.26395,41.39275 L62.26395,41.3924 Z" id="Shape"></path>
            </g>
        </g>
    </g>
</svg>