<?xml version="1.0" encoding="UTF-8"?>
<svg width="108px" height="35px" viewBox="0 0 108 35" version="1.1" xmlns="http://www.w3.org/2000/svg" xmlns:xlink="http://www.w3.org/1999/xlink">
    <!-- Generator: Sketch 62 (91390) - https://sketch.com -->
    <title>4INFO</title>
    <desc>Created with Sketch.</desc>
    <g id="Page-1" stroke="none" stroke-width="1" fill="none" fill-rule="evenodd">
        <g id="Extra-Large-Desktop/1440" transform="translate(-182.000000, -1399.000000)" fill-rule="nonzero">
            <g id="4INFO" transform="translate(182.000000, 1399.500000)">
                <path d="M97.02,9.21 C99.15,11.34 100.5,13.92 101.01,16.89 C101.76,21.42 100.71,25.47 97.71,28.95 C95.4,31.65 92.46,33.21 88.95,33.81 C88.5,33.9 88.05,33.87 87.6,34.02 C86.7,34.02 85.8,34.02 84.9,34.02 C84.45,33.84 83.94,33.87 83.46,33.78 C77.52,32.67 72.96,28.29 71.85,22.35 C70.44,14.79 74.52,8.13 81.18,5.79 C86.01,4.11 90.69,4.68 95.01,7.53 C95.04,7.56 95.07,7.59 95.13,7.62 C95.16,7.77 95.07,7.86 95.01,7.95 C93.81,9.48 92.58,10.98 91.38,12.51 C91.29,12.63 91.17,12.78 90.99,12.78 C90.87,12.75 90.78,12.69 90.69,12.63 C89.58,11.85 88.35,11.4 86.94,11.31 C85.38,11.22 83.97,11.52 82.65,12.3 C81.54,12.96 80.7,13.89 80.07,15 C79.26,16.41 78.84,17.97 78.9,19.59 C79.02,22.2 79.92,24.45 82.02,26.1 C83.1,26.97 84.36,27.42 85.74,27.57 C87.12,27.72 88.44,27.51 89.7,26.88 C91.02,26.25 92.01,25.23 92.76,23.97 C93.69,22.38 94.11,20.67 93.96,18.81 C93.84,17.1 93.24,15.51 92.22,14.13 C92.13,14.01 92.04,13.89 91.98,13.77 C91.92,13.59 92.07,13.5 92.16,13.41 C92.85,12.78 93.54,12.18 94.26,11.55 C95.01,10.86 95.79,10.23 96.51,9.54 C96.63,9.39 96.78,9.18 97.02,9.21 Z" id="Path" fill="#000000"></path>
                <path d="M0.09,19.35 C0.66,18.78 1.14,18.09 1.65,17.46 C3.9,14.67 6.12,11.88 8.37,9.06 C10.68,6.18 12.96,3.27 15.27,0.39 C15.48,0.12 15.69,0.03 16.02,0.03 C18.45,0.06 20.88,0.03 23.31,0.03 C23.43,0.03 23.52,0.03 23.7,0.03 C18.42,6.48 13.17,12.87 7.89,19.35 C8.1,19.35 8.22,19.35 8.37,19.35 C10.71,19.35 13.08,19.35 15.42,19.35 C15.69,19.35 15.78,19.29 15.78,18.99 C15.78,17.22 15.78,15.42 15.78,13.65 C15.78,13.41 15.84,13.26 15.99,13.08 C17.91,10.74 19.8,8.4 21.69,6.09 C21.87,5.88 22.02,5.61 22.26,5.46 C22.41,5.64 22.38,5.88 22.38,6.09 C22.38,10.26 22.38,14.43 22.38,18.63 C22.38,19.35 22.35,19.29 23.04,19.29 C23.85,19.29 24.66,19.29 25.47,19.29 C25.95,19.29 26.01,19.38 26.01,19.83 C26.01,21.54 26.01,23.22 26.01,24.93 C26.01,25.44 25.92,25.5 25.41,25.5 C24.63,25.5 23.85,25.5 23.07,25.5 C22.41,25.5 22.41,25.5 22.41,26.13 C22.41,28.38 22.41,30.66 22.41,32.91 C22.41,33.12 22.44,33.33 22.29,33.48 C20.25,33.48 18.21,33.48 16.17,33.48 C15.87,33.48 15.81,33.42 15.81,33.12 C15.84,30.69 15.81,28.23 15.84,25.8 C15.84,25.44 15.72,25.38 15.39,25.38 C10.29,25.38 5.19,25.38 0.09,25.38 C0.09,23.34 0.09,21.33 0.09,19.35 Z" id="Path" fill="#BBBBBB"></path>
                <path d="M38.31,18 C38.31,18.24 38.31,18.36 38.31,18.48 C38.31,23.37 38.31,28.26 38.31,33.15 C38.31,33.42 38.25,33.48 37.98,33.48 C35.88,33.48 33.78,33.48 31.71,33.48 C31.47,33.48 31.41,33.42 31.41,33.18 C31.41,24.03 31.41,14.88 31.41,5.73 C31.41,5.49 31.47,5.43 31.71,5.43 C33.57,5.43 35.46,5.43 37.32,5.43 C37.53,5.43 37.65,5.49 37.77,5.67 C41.13,10.56 44.52,15.45 47.91,20.31 C47.97,20.4 48.03,20.55 48.18,20.61 C48.27,20.52 48.24,20.43 48.24,20.31 C48.24,15.45 48.24,10.59 48.24,5.76 C48.24,5.52 48.27,5.4 48.57,5.43 C50.64,5.43 52.74,5.43 54.81,5.43 C55.08,5.43 55.11,5.52 55.11,5.76 C55.11,14.91 55.11,24.06 55.11,33.18 C55.11,33.45 55.02,33.51 54.78,33.51 C53.1,33.51 51.45,33.51 49.77,33.51 C49.56,33.51 49.44,33.45 49.29,33.27 C46.08,28.83 42.87,24.36 39.66,19.92 C39.24,19.29 38.79,18.69 38.31,18 Z" id="Path" fill="#000000"></path>
                <path d="M70.8,16.44 C70.56,17.7 70.5,18.93 70.56,20.19 C70.59,20.97 70.68,21.75 70.8,22.5 C70.86,22.77 70.86,22.89 70.5,22.89 C68.46,22.86 66.42,22.89 64.38,22.86 C64.11,22.86 64.05,22.92 64.05,23.19 C64.05,26.49 64.05,29.82 64.05,33.12 C64.05,33.42 63.99,33.48 63.69,33.48 C61.62,33.48 59.58,33.48 57.51,33.48 C57.24,33.48 57.15,33.39 57.15,33.12 C57.15,24 57.15,14.85 57.15,5.73 C57.15,5.49 57.18,5.4 57.45,5.4 C64.53,5.4 71.58,5.4 78.66,5.4 C78.72,5.4 78.81,5.4 78.96,5.4 C78.54,5.64 78.18,5.85 77.85,6.06 C75.51,7.53 73.62,9.42 72.39,11.94 C72.3,12.12 72.18,12.09 72.03,12.09 C69.48,12.09 66.93,12.09 64.41,12.09 C64.11,12.09 64.05,12.18 64.05,12.45 C64.08,13.68 64.05,14.91 64.05,16.14 C64.05,16.35 64.11,16.41 64.32,16.41 C66.36,16.41 68.37,16.41 70.41,16.41 C70.53,16.44 70.65,16.44 70.8,16.44 Z" id="Path" fill="#000000"></path>
                <path d="M22.29,33.45 C22.29,30.87 22.29,28.26 22.29,25.68 C22.29,25.41 22.35,25.32 22.65,25.32 C23.64,25.35 24.6,25.32 25.59,25.32 C25.8,25.32 25.89,25.26 25.89,25.05 C25.89,23.22 25.89,21.39 25.89,19.59 C25.89,19.38 25.83,19.29 25.59,19.29 C24.6,19.29 23.61,19.29 22.62,19.29 C22.29,19.29 22.23,19.2 22.23,18.9 C22.23,14.4 22.23,9.9 22.23,5.4 C22.29,5.4 22.35,5.37 22.41,5.37 C24.66,5.37 26.88,5.37 29.13,5.37 C29.34,5.37 29.4,5.43 29.4,5.64 C29.4,14.82 29.4,24 29.4,33.15 C29.4,33.33 29.37,33.42 29.16,33.42 C26.85,33.45 24.57,33.45 22.29,33.45 Z" id="Path" fill="#000000"></path>
                <path d="M97.02,9.21 C96.27,9.78 95.61,10.44 94.89,11.07 C93.9,11.94 92.91,12.84 91.95,13.71 C91.86,13.95 91.62,14.07 91.44,14.25 C90.3,15.24 89.19,16.29 88.05,17.28 C87.66,17.61 87.24,17.97 86.88,18.36 C86.79,18.48 86.61,18.66 86.49,18.54 C86.34,18.39 86.55,18.27 86.64,18.15 C87.78,16.71 88.92,15.27 90.09,13.83 C90.3,13.59 90.48,13.35 90.66,13.08 C90.75,12.96 90.84,12.81 90.99,12.75 C91.98,11.52 92.97,10.29 93.96,9.06 C94.35,8.58 94.71,8.1 95.1,7.59 C96.21,6.21 97.29,4.83 98.4,3.45 C99.24,2.4 100.08,1.32 100.95,0.27 C101.04,0.15 101.13,0.09 101.31,0.09 C103.2,0.09 105.09,0.09 106.98,0.09 C107.01,0.09 107.04,0.09 107.1,0.12 C106.83,0.45 106.47,0.69 106.17,0.96 C103.2,3.6 100.23,6.24 97.26,8.91 C97.2,9 97.14,9.09 97.02,9.21 Z" id="Path" fill="#BBBBBB"></path>
                <path d="M101.28,9.45 C101.28,10.08 100.8,10.56 100.2,10.59 C99.57,10.59 99.06,10.11 99.06,9.48 C99.06,8.85 99.54,8.34 100.17,8.34 C100.8,8.34 101.28,8.82 101.28,9.45 Z" id="Path" fill="#000000"></path>
                <path d="M91.02,12.75 C90.09,13.92 89.16,15.09 88.23,16.26 C87.66,16.98 87.06,17.7 86.55,18.48 C88.35,16.89 90.15,15.3 91.95,13.68 C93,14.85 93.63,16.23 93.9,17.76 C94.44,20.79 93.66,23.49 91.5,25.68 C89.97,27.21 88.08,27.78 85.92,27.63 C82.2,27.36 79.68,24.6 78.99,21.21 C78.48,18.6 78.96,16.17 80.58,14.04 C81.93,12.21 83.79,11.28 86.07,11.16 C87.9,11.1 89.55,11.61 91.02,12.75 Z" id="Path" fill="#FFFFFF"></path>
                <path d="M99.3,9.45 C99.3,8.97 99.72,8.58 100.2,8.58 C100.68,8.58 101.07,9 101.04,9.48 C101.04,9.96 100.62,10.35 100.14,10.35 C99.69,10.35 99.3,9.93 99.3,9.45 Z" id="Path" fill="#F9F9F9"></path>
                <path d="M100.08,8.79 C100.2,8.82 100.35,8.82 100.47,8.85 C100.56,8.88 100.68,8.97 100.68,9.06 C100.59,9.39 100.65,9.69 100.68,9.99 C100.68,10.08 100.62,10.05 100.56,10.05 C100.47,10.05 100.38,10.08 100.38,9.96 C100.38,9.9 100.35,9.84 100.35,9.75 C100.35,9.63 100.26,9.57 100.14,9.57 C99.96,9.57 100.02,9.69 99.99,9.78 C99.96,9.87 100.08,10.05 99.84,10.05 C99.6,10.05 99.69,9.9 99.66,9.78 C99.66,9.57 99.69,9.36 99.66,9.15 C99.66,8.88 99.75,8.76 100.08,8.79 Z" id="Path" fill="#000000"></path>
                <path d="M100.14,9.39 C99.99,9.39 99.99,9.3 99.99,9.21 C99.99,9.09 100.05,9.03 100.17,9.03 C100.29,9.03 100.35,9.09 100.35,9.21 C100.32,9.36 100.23,9.39 100.14,9.39 Z" id="Path" fill="#E6E6E6"></path>
            </g>
        </g>
    </g>
</svg>