<?xml version="1.0" encoding="UTF-8"?>
<svg width="137px" height="28px" viewBox="0 0 137 28" version="1.1" xmlns="http://www.w3.org/2000/svg" xmlns:xlink="http://www.w3.org/1999/xlink">
    <!-- Generator: Sketch 62 (91390) - https://sketch.com -->
    <title>control arms</title>
    <desc>Created with Sketch.</desc>
    <g id="Page-1" stroke="none" stroke-width="1" fill="none" fill-rule="evenodd">
        <g id="Extra-Large-Desktop/1440" transform="translate(-680.000000, -1403.000000)" fill-rule="nonzero">
            <g id="control-arms" transform="translate(680.400000, 1403.000000)">
                <g id="Group" fill="#686868">
                    <path d="M21.7368,12.0723 C20.0364,12.0723 19.1862,13.4172 19.1862,16.1088 C19.1862,17.4987 19.3965,18.5229 19.8177,19.1799 C20.2392,19.8378 20.8713,20.1666 21.714,20.1666 C22.5567,20.1666 23.1888,19.8348 23.6103,19.1694 C24.0309,18.5034 24.2418,17.484 24.2418,16.1088 C24.2418,14.7336 24.0309,13.7166 23.6103,13.0593 C23.1894,12.4017 22.5648,12.0723 21.7368,12.0723 Z" id="Path"></path>
                    <path d="M64.4079,12.0723 C62.7075,12.0723 61.8573,13.4172 61.8573,16.1088 C61.8573,17.4987 62.0682,18.5229 62.4894,19.1799 C62.9103,19.8378 63.543,20.1666 64.3851,20.1666 C65.2284,20.1666 65.8599,19.8348 66.2814,19.1694 C66.7029,18.5034 66.9132,17.484 66.9132,16.1088 C66.9132,14.7336 66.7029,13.7166 66.2814,13.0593 C65.8599,12.4017 65.2356,12.0723 64.4079,12.0723 Z" id="Path"></path>
                    <path d="M0,0 L0,27.6 L80.9316,27.6 L80.9316,0 L0,0 Z M9.5166,19.1142 C9.9747,19.713 10.6254,20.0124 11.4681,20.0124 C11.8968,20.0124 12.2856,19.9425 12.6327,19.8015 C12.9798,19.6611 13.368,19.4283 13.797,19.1031 L15.1056,20.9661 C13.9965,21.8682 12.7323,22.3194 11.313,22.3194 C10.1892,22.3194 9.2133,22.0719 8.3853,21.576 C7.5567,21.0807 6.921,20.3748 6.4779,19.4577 C6.0342,18.5403 5.8128,17.4618 5.8128,16.2198 C5.8128,14.9769 6.0339,13.8792 6.4779,12.9261 C6.9216,11.9718 7.5573,11.2332 8.3853,10.7079 C9.2133,10.1832 10.1814,9.9207 11.2908,9.9207 C12.0594,9.9207 12.7506,10.0308 13.3644,10.2525 C13.9776,10.4745 14.5581,10.8219 15.1056,11.2959 L13.8192,13.0257 C13.4343,12.7302 13.0575,12.5121 12.6879,12.3714 C12.3183,12.2304 11.9118,12.1608 11.4681,12.1608 C9.7083,12.1608 8.829,13.4991 8.829,16.1751 C8.829,17.5359 9.0582,18.5154 9.5166,19.1142 Z M26.5716,19.3578 C26.1282,20.2971 25.4922,21.0252 24.6648,21.5418 C23.8368,22.0599 22.8537,22.3185 21.7152,22.3185 C19.9854,22.3185 18.6324,21.7674 17.6565,20.6658 C16.6806,19.5645 16.1928,18.0459 16.1928,16.1088 C16.1928,14.8812 16.4145,13.8024 16.8582,12.8706 C17.3019,11.9394 17.9412,11.2146 18.777,10.6974 C19.6125,10.1793 20.5992,9.921 21.738,9.921 C23.4681,9.921 24.8169,10.4721 25.785,11.5734 C26.7537,12.675 27.2382,14.187 27.2382,16.1088 C27.237,17.3364 27.0153,18.4191 26.5716,19.3578 Z M39.4797,21.9861 L36.6408,21.9861 L36.6408,13.9353 C36.6408,13.2405 36.5187,12.7527 36.2742,12.4716 C36.0306,12.1902 35.6724,12.0501 35.1993,12.0501 C34.7112,12.0501 34.2705,12.2019 33.8796,12.5049 C33.4875,12.8088 33.1068,13.2486 32.7375,13.8246 L32.7375,21.9861 L29.8986,21.9861 L29.8986,10.2537 L32.3604,10.2537 L32.5815,11.8065 C33.5574,10.5501 34.7481,9.9219 36.1524,9.9219 C37.2021,9.9219 38.0187,10.2363 38.6031,10.8645 C39.1866,11.4933 39.4791,12.3693 39.4791,13.4928 L39.4797,21.9861 L39.4797,21.9861 Z M48.1182,22.0968 C47.6079,22.2444 47.0868,22.3185 46.5546,22.3185 C45.4011,22.3032 44.5248,21.9747 43.9263,21.3318 C43.3275,20.688 43.0281,19.7382 43.0281,18.4818 L43.0281,12.294 L41.1873,12.294 L41.1873,10.2528 L43.0281,10.2528 L43.0281,7.6587 L45.867,7.3263 L45.867,10.2537 L48.5949,10.2537 L48.3066,12.2949 L45.867,12.2949 L45.867,18.4158 C45.867,18.9921 45.9669,19.407 46.1664,19.6581 C46.3659,19.9098 46.68,20.0352 47.109,20.0352 C47.5527,20.0352 48.0183,19.8876 48.5061,19.5915 L49.5045,21.4329 C49.0902,21.7281 48.6279,21.9495 48.1182,22.0968 Z M57.5772,12.8487 C57.2214,12.7599 56.874,12.7158 56.5338,12.7158 C55.8396,12.7158 55.2921,12.9633 54.8928,13.4592 C54.4935,13.9545 54.1755,14.7201 53.9391,15.7542 L53.9391,21.9861 L51.1005,21.9861 L51.1005,10.2537 L53.5623,10.2537 L53.8284,12.5604 C54.1089,11.7168 54.5157,11.0709 55.0476,10.6197 C55.5798,10.1688 56.193,9.9426 56.889,9.9426 C57.3177,9.9426 57.7089,9.9951 58.0644,10.0986 L57.5772,12.8487 Z M69.243,19.3578 C68.7993,20.2971 68.1636,21.0252 67.3359,21.5418 C66.5076,22.0599 65.5245,22.3185 64.386,22.3185 C62.6562,22.3185 61.3038,21.7674 60.3279,20.6658 C59.352,19.5645 58.8642,18.0459 58.8642,16.1088 C58.8642,14.8812 59.0853,13.8024 59.5296,12.8706 C59.973,11.9394 60.612,11.2146 61.4481,10.6974 C62.2833,10.1793 63.2703,9.921 64.4088,9.921 C66.1389,9.921 67.4877,10.4721 68.4564,11.5734 C69.4245,12.675 69.909,14.187 69.909,16.1088 C69.9081,17.3364 69.6861,18.4191 69.243,19.3578 Z M75.2091,22.3188 C74.322,22.3188 73.6413,22.0635 73.1685,21.5535 C72.6951,21.0435 72.4587,20.3004 72.4587,19.3245 L72.4587,5.5518 L75.2976,5.2413 L75.2976,19.125 C75.2976,19.4502 75.3495,19.683 75.4536,19.8234 C75.5571,19.9641 75.7269,20.034 75.9636,20.034 C76.1847,20.034 76.4073,19.9974 76.629,19.9233 L77.2278,21.9192 C76.5912,22.1856 75.9186,22.3188 75.2091,22.3188 Z" id="Shape"></path>
                </g>
                <g id="Group" transform="translate(83.400000, 9.000000)" fill="#000000">
                    <path d="M11.3553,10.6404 C11.2182,10.4151 11.1489,10.0602 11.1489,9.5769 L11.1489,4.5975 C11.1489,3.0831 10.7217,1.9473 9.8679,1.1895 C9.0135,0.4332 7.6683,0.0537 5.8314,0.0537 C5.1063,0.0537 4.3206,0.135 3.4752,0.2961 C2.6295,0.4572 1.8036,0.6903 0.9972,0.9966 L1.8672,3.5109 C2.4957,3.3018 3.108,3.1362 3.7044,3.0153 C4.3002,2.8953 4.8078,2.8341 5.2269,2.8341 C6.0327,2.8341 6.5958,2.9754 6.9189,3.2565 C7.2411,3.5385 7.4019,4.0587 7.4019,4.8153 L7.4019,5.3715 L6.0963,5.3715 C4.1466,5.3715 2.6556,5.742 1.6254,6.4839 C0.594,7.2252 0.0786,8.2965 0.0786,9.6987 C0.0786,10.8915 0.4572,11.8581 1.2144,12.5991 C1.971,13.3401 2.9868,13.7109 4.2594,13.7109 C6.0003,13.7109 7.2894,13.0746 8.1273,11.8017 C8.4177,12.414 8.808,12.858 9.2997,13.131 C9.7911,13.4046 10.431,13.5747 11.2206,13.6386 L12.0183,11.1489 C11.7135,11.0355 11.4918,10.8663 11.3553,10.6404 Z M7.4028,9.7701 C7.1607,10.1568 6.8673,10.4544 6.5211,10.6638 C6.1746,10.8732 5.7918,10.9779 5.373,10.9779 C4.9053,10.9779 4.5399,10.8372 4.2732,10.5549 C4.0074,10.2735 3.8745,9.8745 3.8745,9.3594 C3.8745,8.715 4.0878,8.2395 4.5156,7.9332 C4.9425,7.6269 5.5914,7.4739 6.4608,7.4739 L7.4037,7.4739 L7.4028,9.7701 L7.4028,9.7701 Z" id="Shape"></path>
                    <path d="M18.6423,0.8511 C18.054,1.3509 17.6151,2.0445 17.325,2.9301 L17.0103,0.4647 L13.6752,0.4647 L13.6752,13.2993 L17.4939,13.2993 L17.4939,6.8937 C17.7192,5.8623 18.0336,5.0886 18.4362,4.5735 C18.8397,4.0578 19.4112,3.8001 20.1534,3.8001 C20.4435,3.8001 20.8302,3.8565 21.3132,3.969 L21.918,0.2712 C21.5313,0.1584 21.1041,0.102 20.6367,0.102 C19.8951,0.102 19.2306,0.3519 18.6423,0.8511 Z" id="Path"></path>
                    <path d="M37.2219,0.0537 C36.4158,0.0537 35.7033,0.2226 35.0829,0.561 C34.4628,0.8994 33.8943,1.407 33.3786,2.0838 C33.1209,1.4397 32.73,0.9399 32.2065,0.5853 C31.6827,0.2304 31.0662,0.0537 30.3573,0.0537 C29.5839,0.0537 28.8948,0.2106 28.2909,0.5247 C27.6858,0.8391 27.1344,1.3185 26.6346,1.9629 L26.3688,0.4647 L23.0331,0.4647 L23.0331,13.2993 L26.8521,13.2993 L26.8521,4.5252 C27.1422,3.9774 27.444,3.5622 27.7584,3.2805 C28.0725,2.9991 28.4232,2.8581 28.8096,2.8581 C29.535,2.8581 29.8974,3.4296 29.8974,4.5744 L29.8974,13.3002 L33.7164,13.3002 L33.7164,4.5258 C34.0062,3.9621 34.3041,3.5436 34.6101,3.2694 C34.9164,2.9955 35.2704,2.8584 35.6736,2.8584 C36.3987,2.8584 36.7614,3.4299 36.7614,4.5747 L36.7614,13.3005 L40.5801,13.3005 L40.5801,3.9219 C40.5801,2.7132 40.2738,1.7664 39.6615,1.0818 C39.0507,0.396 38.2368,0.0537 37.2219,0.0537 Z" id="Path"></path>
                    <path d="M51.8211,6.906 C51.1683,6.2868 50.1732,5.7828 48.8358,5.3961 C48.0624,5.1705 47.4909,4.9773 47.1195,4.8153 C46.7487,4.6545 46.5033,4.4973 46.3827,4.344 C46.2618,4.191 46.2015,3.9936 46.2015,3.7518 C46.2015,3.4458 46.338,3.2082 46.6116,3.0387 C46.8855,2.8701 47.3049,2.7846 47.8683,2.7846 C48.8673,2.7846 49.8825,3.123 50.9139,3.8001 L52.3158,1.6245 C51.7032,1.1253 50.9946,0.7386 50.1885,0.4647 C49.3821,0.1908 48.5202,0.0537 47.6022,0.0537 C46.5546,0.0537 45.6327,0.2268 44.8341,0.5733 C44.037,0.9198 43.4241,1.3872 42.9972,1.9752 C42.57,2.5635 42.3567,3.2283 42.3567,3.969 C42.3567,4.9521 42.6708,5.7747 43.2999,6.4353 C43.9284,7.0962 44.8791,7.6116 46.152,7.9815 C46.9578,8.208 47.5458,8.3973 47.9166,8.55 C48.2868,8.7036 48.5364,8.8728 48.666,9.0576 C48.795,9.2424 48.8595,9.489 48.8595,9.7947 C48.8595,10.1649 48.6939,10.455 48.3645,10.6644 C48.0333,10.8738 47.5707,10.9785 46.9746,10.9785 C46.3785,10.9785 45.7905,10.866 45.21,10.6401 C44.6295,10.4148 44.0982,10.1004 43.6152,9.6975 L41.7297,11.8005 C42.3735,12.3966 43.1598,12.8637 44.0859,13.2021 C45.0129,13.5408 46.0158,13.7097 47.0946,13.7097 C48.1584,13.7097 49.1259,13.5408 49.9953,13.2021 C50.8653,12.8637 51.5508,12.3768 52.0506,11.7399 C52.5498,11.1036 52.8,10.35 52.8,9.48 C52.8,8.3844 52.473,7.5264 51.8211,6.906 Z" id="Path"></path>
                </g>
            </g>
        </g>
    </g>
</svg>