<?xml version="1.0" encoding="UTF-8"?>
<svg width="177px" height="49px" viewBox="0 0 177 49" version="1.1" xmlns="http://www.w3.org/2000/svg" xmlns:xlink="http://www.w3.org/1999/xlink">
    <!-- Generator: Sketch 62 (91390) - https://sketch.com -->
    <title>VibrantAmerica</title>
    <desc>Created with Sketch.</desc>
    <g id="Page-1" stroke="none" stroke-width="1" fill="none" fill-rule="evenodd">
        <g id="Extra-Large-Desktop/1440" transform="translate(-1080.000000, -1376.000000)" fill-rule="nonzero">
            <g id="VibrantAmerica" transform="translate(1080.000000, 1376.500000)">
                <path d="M30.0612,31.8756 L32.4861,31.8756 C32.7468,31.8756 32.9592,31.9398 33.1233,32.067 C33.2868,32.1936 33.4101,32.3571 33.492,32.5581 L37.2915,42.4146 C37.4181,42.7341 37.5387,43.0863 37.6548,43.4706 C37.77,43.8549 37.8798,44.2587 37.9848,44.6835 C38.1555,43.8273 38.3679,43.0704 38.6217,42.4149 L42.4101,32.5587 C42.4773,32.3871 42.5961,32.2311 42.7674,32.0898 C42.9384,31.9479 43.1505,31.8777 43.4043,31.8777 L45.8295,31.8777 L39.303,48.036 L36.5871,48.036 L30.0612,31.8756 Z" id="Path" fill="#000000"></path>
                <path d="M50.2656,33.2283 C50.2656,33.4668 50.217,33.6906 50.1207,33.8982 C50.0238,34.1067 49.8948,34.29 49.7352,34.4454 C49.5747,34.6017 49.3866,34.7271 49.1706,34.8198 C48.9543,34.9134 48.7239,34.9599 48.4776,34.9599 C48.2391,34.9599 48.0138,34.9146 47.8014,34.8198 C47.5893,34.7271 47.4048,34.6017 47.2482,34.4454 C47.0919,34.2894 46.9668,34.1067 46.8735,33.8982 C46.7802,33.6906 46.734,33.4668 46.734,33.2283 C46.734,32.9829 46.7802,32.7519 46.8735,32.5347 C46.9671,32.319 47.0919,32.1327 47.2482,31.9773 C47.4045,31.8204 47.5893,31.6956 47.8014,31.6029 C48.0138,31.5093 48.2391,31.4625 48.4776,31.4625 C48.7233,31.4625 48.9543,31.5087 49.1706,31.6029 C49.3866,31.6956 49.5747,31.8204 49.7352,31.9773 C49.8948,32.1333 50.0238,32.3196 50.1207,32.5347 C50.217,32.7519 50.2656,32.9823 50.2656,33.2283 M49.8525,48.0351 L47.0922,48.0351 L47.0922,36.5694 L49.8525,36.5694 L49.8525,48.0351 Z" id="Shape" fill="#000000"></path>
                <path d="M52.3173,48.0351 L52.3173,31.4289 L55.0773,31.4289 L55.0773,37.9773 C55.5318,37.4928 56.046,37.1073 56.6196,36.8208 C57.1932,36.5343 57.8634,36.3906 58.6311,36.3906 C59.2569,36.3906 59.8287,36.519 60.3468,36.7761 C60.8649,37.0323 61.3116,37.4073 61.6878,37.8984 C62.064,38.391 62.3547,38.997 62.5596,39.72 C62.7645,40.4424 62.8665,41.2734 62.8665,42.2121 C62.8665,43.0686 62.7504,43.8627 62.52,44.5932 C62.2893,45.3234 61.9596,45.9561 61.5312,46.4928 C61.1025,47.0295 60.5853,47.448 59.9778,47.7492 C59.3706,48.0519 58.6908,48.2025 57.9378,48.2025 C57.5877,48.2025 57.2679,48.1674 56.9772,48.0963 C56.6865,48.0264 56.4219,47.9277 56.1834,47.8005 C55.9446,47.6733 55.7235,47.5191 55.5183,47.3364 C55.3128,47.1546 55.1178,46.9518 54.9315,46.728 L54.8088,47.4981 C54.7644,47.6919 54.6876,47.8296 54.5796,47.9118 C54.4716,47.994 54.324,48.0348 54.1377,48.0348 L52.3173,48.0351 L52.3173,48.0351 Z M57.6813,38.5359 C57.1077,38.5359 56.6178,38.6571 56.2122,38.8992 C55.806,39.1428 55.428,39.4821 55.0779,39.9216 L55.0779,45.0627 C55.3908,45.45 55.7319,45.72 56.1003,45.8724 C56.469,46.026 56.8692,46.1025 57.3015,46.1025 C57.7191,46.1025 58.0953,46.0236 58.4307,45.8682 C58.7658,45.7113 59.0505,45.4728 59.2857,45.1527 C59.52,44.8323 59.7009,44.4285 59.8281,43.9404 C59.9547,43.4523 60.018,42.8766 60.018,42.2133 C60.018,41.5434 59.9634,40.974 59.856,40.5087 C59.7483,40.0428 59.5935,39.6651 59.3922,39.3744 C59.1912,39.0837 58.9473,38.8716 58.6605,38.7375 C58.3725,38.6037 58.0461,38.5359 57.6813,38.5359" id="Shape" fill="#000000"></path>
                <path d="M64.5873,48.0351 L64.5873,36.5694 L66.2076,36.5694 C66.4905,36.5694 66.6882,36.6216 66.7998,36.7257 C66.9117,36.8304 66.9861,37.0086 67.0236,37.2618 L67.1913,38.6475 C67.6008,37.9407 68.0814,37.3806 68.6334,36.9711 C69.1845,36.5616 69.8025,36.3564 70.4883,36.3564 C71.0547,36.3564 71.5239,36.4872 71.8965,36.7473 L71.5392,38.8161 C71.5167,38.9493 71.4684,39.0447 71.394,39.1005 C71.3193,39.1566 71.2188,39.1836 71.0922,39.1836 C70.9803,39.1836 70.8276,39.1578 70.6341,39.1056 C70.4406,39.0534 70.1832,39.0276 69.8631,39.0276 C69.2892,39.0276 68.7978,39.1848 68.388,39.5022 C67.9785,39.8187 67.6317,40.2828 67.3488,40.8933 L67.3488,48.0342 L64.5885,48.0342 L64.5885,48.0351 L64.5873,48.0351 L64.5873,48.0351 Z" id="Path" fill="#000000"></path>
                <path d="M82.0113,48.0351 L80.7708,48.0351 C80.5098,48.0351 80.3049,47.9958 80.1558,47.9178 C80.0067,47.8392 79.8954,47.6811 79.821,47.4426 L79.575,46.6269 C79.2846,46.8867 78.9996,47.1168 78.7203,47.3142 C78.4407,47.5107 78.1518,47.6769 77.8539,47.8107 C77.5557,47.9448 77.2392,48.045 76.9038,48.1125 C76.5687,48.1803 76.1964,48.2136 75.786,48.2136 C75.3021,48.2136 74.8548,48.1476 74.4453,48.018 C74.0352,47.8866 73.6833,47.691 73.389,47.4291 C73.095,47.1678 72.8655,46.8426 72.702,46.4535 C72.5376,46.0644 72.456,45.6117 72.456,45.0966 C72.456,44.6631 72.5694,44.2353 72.7971,43.8129 C73.0242,43.3914 73.4028,43.0095 73.9311,42.6696 C74.4603,42.3291 75.1641,42.0468 76.0431,41.823 C76.9224,41.5986 78.0138,41.4861 79.3176,41.4861 L79.3176,40.8105 C79.3176,40.0377 79.1553,39.4662 78.8313,39.0936 C78.5076,38.7216 78.0363,38.5359 77.4177,38.5359 C76.971,38.5359 76.5984,38.5887 76.2999,38.6928 C76.002,38.7969 75.7431,38.9142 75.5232,39.045 C75.3036,39.1752 75.1005,39.2928 74.9145,39.3966 C74.7282,39.501 74.523,39.5529 74.2995,39.5529 C74.1132,39.5529 73.9533,39.5049 73.8189,39.4077 C73.6848,39.3111 73.5765,39.192 73.4949,39.0504 L72.9918,38.1684 C74.3106,36.9615 75.9009,36.3579 77.7636,36.3579 C78.4338,36.3579 79.0323,36.468 79.5573,36.6873 C80.0823,36.9075 80.5272,37.2129 80.8923,37.6047 C81.2577,37.9962 81.5352,38.4627 81.7245,39.0075 C81.9144,39.5508 82.0095,40.1472 82.0095,40.7952 L82.0095,48.0357 L82.0113,48.0357 L82.0113,48.0351 Z M76.6476,46.3146 C76.9302,46.3146 77.1912,46.2879 77.4294,46.2369 C77.6679,46.1853 77.8932,46.1085 78.1056,46.0059 C78.318,45.9033 78.5229,45.7761 78.7206,45.6261 C78.9174,45.4752 79.1169,45.297 79.3182,45.093 L79.3182,43.1736 C78.5133,43.1736 77.841,43.224 77.3007,43.3254 C76.7604,43.4271 76.3269,43.5567 75.9987,43.7142 C75.6708,43.8714 75.438,44.0565 75.3003,44.2662 C75.1623,44.4756 75.0939,44.7051 75.0939,44.9523 C75.0939,45.4404 75.2376,45.789 75.5244,45.9984 C75.8109,46.2093 76.1856,46.3146 76.6476,46.3146" id="Shape" fill="#000000"></path>
                <path d="M84.2352,48.0351 L84.2352,36.5694 L85.9227,36.5694 C86.2803,36.5694 86.5149,36.7371 86.6268,37.0722 L86.8167,37.9785 C87.048,37.74 87.2916,37.5228 87.5487,37.3299 C87.8055,37.1361 88.0776,36.969 88.3644,36.8271 C88.6512,36.6849 88.9581,36.5781 89.2863,36.5031 C89.6142,36.4287 89.9715,36.3918 90.3588,36.3918 C90.9849,36.3918 91.5399,36.4974 92.0241,36.7101 C92.5083,36.9222 92.9127,37.2204 93.2367,37.6041 C93.5607,37.9869 93.8064,38.4456 93.9744,38.9787 C94.1421,39.5103 94.2258,40.0974 94.2258,40.7388 L94.2258,48.0351 L91.4655,48.0351 L91.4655,40.7388 C91.4655,40.0377 91.3035,39.4956 90.9792,39.1119 C90.6558,38.7291 90.1698,38.5359 89.5218,38.5359 C89.0448,38.5359 88.5978,38.6442 88.1808,38.8599 C87.7629,39.0771 87.3687,39.3708 86.9964,39.7428 L86.9964,48.0351 L84.2352,48.0351 L84.2352,48.0351 Z" id="Path" fill="#000000"></path>
                <path d="M99.9537,48.2142 C98.9622,48.2142 98.1987,47.9328 97.6623,47.3706 C97.1259,46.8084 96.858,46.0317 96.858,45.0408 L96.858,38.6367 L95.6958,38.6367 C95.5467,38.6367 95.418,38.5881 95.31,38.4924 C95.202,38.3958 95.148,38.2494 95.148,38.0565 L95.148,36.9609 L96.9918,36.6591 L97.5732,33.5307 C97.6029,33.3813 97.6722,33.2658 97.7802,33.1839 C97.887,33.1026 98.0238,33.0609 98.187,33.0609 L99.6183,33.0609 L99.6183,36.6708 L102.6354,36.6708 L102.6354,38.6373 L99.6183,38.6373 L99.6183,44.8506 C99.6183,45.2079 99.708,45.4875 99.8865,45.6891 C100.0653,45.8904 100.3047,45.9918 100.6017,45.9918 C100.773,45.9918 100.9167,45.9714 101.0331,45.9303 C101.1483,45.8883 101.2488,45.8466 101.3349,45.8004 C101.4204,45.7566 101.4969,45.7131 101.5635,45.672 C101.6316,45.6315 101.6979,45.6105 101.7648,45.6105 C101.847,45.6105 101.9136,45.6315 101.9661,45.672 C102.0189,45.7131 102.0738,45.7746 102.1347,45.8565 L102.9618,47.1972 C102.5592,47.5329 102.0972,47.7861 101.5758,47.9577 C101.052,48.1287 100.512,48.2142 99.9537,48.2142" id="Path" fill="#000000"></path>
                <path d="M117.6168,48.0351 L116.7351,48.0351 C116.6301,48.0351 116.5446,48.0075 116.478,47.9517 C116.4108,47.8956 116.3592,47.8224 116.3217,47.7333 L114.4554,43.14 L106.6884,43.14 L104.8329,47.7333 C104.8026,47.8152 104.7513,47.8863 104.6766,47.946 C104.6019,48.0057 104.5125,48.0351 104.4078,48.0351 L103.5366,48.0351 L110.0067,32.2224 L111.1467,32.2224 L117.6168,48.0351 Z M107.0343,42.2916 L114.1191,42.2916 L110.889,34.3008 C110.8368,34.1736 110.7846,34.0317 110.7327,33.8706 C110.6808,33.7095 110.6277,33.5406 110.5764,33.3615 C110.5242,33.5412 110.472,33.7101 110.4201,33.8706 C110.3679,34.0305 110.3151,34.1775 110.2638,34.3119 L107.0343,42.2916 Z" id="Shape" fill="#000000"></path>
                <path d="M119.3286,48.0351 L119.3286,36.9165 L119.91,36.9165 C120.1038,36.9165 120.2154,37.0098 120.2454,37.1955 L120.3462,38.805 C120.5619,38.4987 120.7929,38.2203 121.0386,37.9665 C121.2849,37.7136 121.5474,37.4955 121.8267,37.3122 C122.1069,37.1304 122.4042,36.9888 122.7207,36.888 C123.0372,36.7872 123.3708,36.7368 123.7209,36.7368 C124.533,36.7368 125.181,36.9735 125.6646,37.4463 C126.1488,37.9191 126.4767,38.5776 126.648,39.4185 C126.7818,38.9568 126.9699,38.5584 127.2114,38.2227 C127.4532,37.8882 127.7304,37.6104 128.0427,37.3914 C128.355,37.1712 128.6955,37.0071 129.0627,36.8988 C129.4314,36.7914 129.8088,36.7365 130.1955,36.7365 C130.7457,36.7365 131.2401,36.8289 131.679,37.0101 C132.1185,37.1928 132.4911,37.4631 132.7998,37.8204 C133.1085,38.1783 133.3446,38.6172 133.5081,39.1392 C133.6716,39.6597 133.7535,40.2567 133.7535,40.9269 L133.7535,48.0333 L132.6924,48.0333 L132.6924,40.9269 C132.6924,39.8394 132.4575,39.0093 131.9874,38.4408 C131.5188,37.8708 130.8471,37.5849 129.9759,37.5849 C129.588,37.5849 129.2184,37.6557 128.8641,37.797 C128.5095,37.9398 128.1966,38.1498 127.9248,38.4285 C127.6533,38.7081 127.437,39.0561 127.2771,39.4728 C127.1175,39.8901 127.0365,40.3746 127.0365,40.9263 L127.0365,48.0327 L125.9748,48.0327 L125.9748,40.9263 C125.9748,39.8451 125.7585,39.0192 125.3271,38.445 C124.8954,37.8714 124.2654,37.5849 123.4386,37.5849 C122.8347,37.5849 122.2761,37.7658 121.7619,38.1273 C121.2477,38.4888 120.7899,38.9898 120.3873,39.6303 L120.3873,48.0339 L119.3268,48.0339 L119.3268,48.0345 L119.3286,48.0345 L119.3286,48.0351 Z" id="Path" fill="#000000"></path>
                <path d="M140.7915,36.7371 C141.4179,36.7371 141.9975,36.8454 142.5294,37.0611 C143.0619,37.2777 143.5236,37.5924 143.9145,38.0049 C144.3066,38.4192 144.6111,38.9271 144.8316,39.5307 C145.0506,40.1343 145.1616,40.8267 145.1616,41.6097 C145.1616,41.7738 145.1376,41.8851 145.089,41.9448 C145.0404,42.0039 144.9642,42.0339 144.8604,42.0339 L136.836,42.0339 L136.836,42.2466 C136.836,43.0809 136.9332,43.8153 137.1267,44.448 C137.3205,45.0807 137.5959,45.6117 137.9535,46.041 C138.3114,46.47 138.744,46.7916 139.2501,47.0079 C139.7568,47.2242 140.3229,47.3319 140.9487,47.3319 C141.507,47.3319 141.9912,47.2704 142.4013,47.148 C142.8114,47.025 143.1561,46.8873 143.4354,46.7343 C143.7144,46.5813 143.9364,46.443 144.0999,46.3206 C144.264,46.1976 144.3828,46.1361 144.4572,46.1361 C144.5532,46.1361 144.6282,46.1736 144.6804,46.248 L144.9717,46.6053 C144.7923,46.8285 144.5556,47.0367 144.2622,47.2311 C143.9676,47.4249 143.64,47.5908 143.2785,47.7285 C142.917,47.8662 142.5303,47.9754 142.1166,48.0585 C141.7029,48.1398 141.2874,48.1809 140.8716,48.1809 C140.1117,48.1809 139.4178,48.0492 138.792,47.7849 C138.1662,47.52 137.6289,47.1345 137.1813,46.6287 C136.7331,46.122 136.3875,45.501 136.1418,44.7678 C135.8976,44.0343 135.7749,43.194 135.7749,42.2484 C135.7749,41.451 135.888,40.716 136.1154,40.0416 C136.3428,39.3678 136.671,38.7861 137.0991,38.298 C137.5269,37.8099 138.0525,37.4283 138.6747,37.1526 C139.2963,36.8748 140.0016,36.7371 140.7915,36.7371 M140.8086,37.5309 C140.2356,37.5309 139.7223,37.6206 139.2681,37.7994 C138.8139,37.9785 138.4221,38.2353 138.0903,38.5704 C137.7591,38.9055 137.4921,39.3081 137.2869,39.7767 C137.0823,40.2459 136.9464,40.7715 136.8804,41.3532 L144.1998,41.3532 C144.1998,40.7574 144.1179,40.2219 143.9544,39.7491 C143.7903,39.2757 143.5608,38.8755 143.2623,38.5473 C142.9647,38.2197 142.6077,37.9677 142.1907,37.7931 C141.7746,37.6188 141.3135,37.5309 140.8086,37.5309" id="Shape" fill="#000000"></path>
                <path d="M147.2526,48.0351 L147.2526,36.9165 L147.8109,36.9165 C147.9375,36.9165 148.0296,36.9423 148.0845,36.9945 C148.1409,37.0467 148.1724,37.1364 148.1799,37.263 L148.2696,39.6096 C148.626,38.7084 149.1027,38.0034 149.6994,37.4919 C150.2958,36.9816 151.0302,36.7266 151.9008,36.7266 C152.2365,36.7266 152.5458,36.7614 152.8296,36.8322 C153.1119,36.9036 153.381,37.0056 153.6342,37.1397 L153.489,37.8774 C153.4674,37.9962 153.393,38.0562 153.2652,38.0562 C153.2214,38.0562 153.1581,38.0415 153.0753,38.0118 C152.994,37.9818 152.892,37.9485 152.769,37.911 C152.646,37.8735 152.4954,37.8411 152.3166,37.8102 C152.1366,37.7808 151.9329,37.7664 151.7007,37.7664 C150.8592,37.7664 150.1692,38.0271 149.6283,38.5476 C149.0874,39.069 148.6497,39.8214 148.3146,40.8051 L148.3146,48.0351 L147.2526,48.0351 L147.2526,48.0351 Z" id="Path" fill="#000000"></path>
                <path d="M157.0824,33.0825 C157.0824,33.2166 157.0542,33.3414 156.9987,33.4569 C156.9423,33.573 156.8697,33.6756 156.78,33.7644 C156.6909,33.8535 156.5865,33.924 156.4677,33.9765 C156.3483,34.0287 156.2217,34.0545 156.0873,34.0545 C155.9526,34.0545 155.8266,34.0287 155.7069,33.9765 C155.5881,33.924 155.4837,33.8535 155.394,33.7644 C155.3043,33.6744 155.2335,33.5718 155.1819,33.4569 C155.1291,33.3414 155.1033,33.2166 155.1033,33.0825 C155.1033,32.949 155.1291,32.82 155.1819,32.697 C155.2335,32.5746 155.3043,32.4678 155.394,32.3787 C155.4837,32.2896 155.5875,32.2182 155.7069,32.166 C155.8257,32.1144 155.9523,32.0877 156.0873,32.0877 C156.2214,32.0877 156.3474,32.1144 156.4677,32.166 C156.5865,32.2182 156.6909,32.2896 156.78,32.3787 C156.8697,32.4678 156.9423,32.5734 156.9987,32.697 C157.0554,32.8203 157.0824,32.949 157.0824,33.0825 M156.6123,48.0351 L155.5506,48.0351 L155.5506,36.9165 L156.6123,36.9165 L156.6123,48.0351 Z" id="Shape" fill="#000000"></path>
                <path d="M167.0169,38.4027 C166.9794,38.4396 166.9443,38.4714 166.9107,38.4966 C166.8768,38.523 166.8303,38.5359 166.7712,38.5359 C166.6962,38.5359 166.5936,38.4855 166.4637,38.3847 C166.3335,38.2845 166.1601,38.1744 165.9447,38.0553 C165.7278,37.9365 165.459,37.8261 165.135,37.725 C164.8104,37.6242 164.4165,37.5738 163.9554,37.5738 C163.3137,37.5738 162.7467,37.6884 162.2502,37.9152 C161.7558,38.1432 161.3379,38.469 160.9986,38.8938 C160.6599,39.318 160.401,39.8325 160.2222,40.4355 C160.0434,41.04 159.9534,41.7174 159.9534,42.4698 C159.9534,43.2513 160.0455,43.9446 160.227,44.5482 C160.4097,45.1521 160.6695,45.6597 161.004,46.0734 C161.3391,46.4871 161.7459,46.8027 162.2226,47.0178 C162.699,47.2341 163.2282,47.3418 163.8099,47.3418 C164.346,47.3418 164.7948,47.2785 165.1557,47.1519 C165.5166,47.0244 165.8142,46.8867 166.0494,46.7373 C166.2843,46.5894 166.4706,46.4517 166.6089,46.3242 C166.7466,46.1976 166.8561,46.1337 166.9383,46.1337 C167.0349,46.1337 167.1099,46.1712 167.1615,46.2456 L167.4522,46.6035 C167.2812,46.8267 167.0649,47.0349 166.8048,47.2293 C166.5441,47.4228 166.2486,47.5908 165.9225,47.7321 C165.5937,47.8734 165.2382,47.9835 164.8548,48.0615 C164.4711,48.1404 164.0709,48.1803 163.6524,48.1803 C162.9459,48.1803 162.2982,48.051 161.7135,47.7948 C161.1294,47.5377 160.626,47.1648 160.206,46.6767 C159.7854,46.1883 159.4572,45.5916 159.2229,44.8827 C158.988,44.1756 158.8707,43.3704 158.8707,42.4692 C158.8707,41.6202 158.9826,40.8456 159.2058,40.1448 C159.429,39.4446 159.7548,38.841 160.1838,38.3343 C160.6122,37.8279 161.1372,37.4349 161.7594,37.1553 C162.3816,36.8754 163.0947,36.7365 163.8993,36.7365 C164.6223,36.7365 165.2646,36.8529 165.8271,37.0827 C166.3896,37.314 166.8795,37.6263 167.2971,38.0214 L167.0169,38.4027 Z" id="Path" fill="#000000"></path>
                <path d="M176.5794,48.0351 C176.3562,48.0351 176.2185,47.9307 176.1657,47.7222 L176.0097,46.3035 C175.7034,46.6014 175.4004,46.8702 175.0986,47.1087 C174.7968,47.3472 174.4815,47.5482 174.1548,47.7123 C173.8266,47.8758 173.4735,48.0006 173.0931,48.0867 C172.7127,48.1722 172.2963,48.2154 171.8415,48.2154 C171.4611,48.2154 171.0927,48.1593 170.7351,48.0474 C170.3772,47.9355 170.0607,47.7648 169.7847,47.5335 C169.5093,47.3022 169.2879,47.0061 169.1196,46.6446 C168.9519,46.2837 168.8682,45.8496 168.8682,45.3426 C168.8682,44.8734 169.0017,44.4369 169.2708,44.0355 C169.5393,43.6329 169.9581,43.2831 170.5272,42.9849 C171.0972,42.6873 171.8316,42.4488 172.7292,42.27 C173.6268,42.0906 174.7056,41.9865 175.9641,41.9565 L175.9641,40.794 C175.9641,39.7662 175.7427,38.9748 175.2996,38.4198 C174.8559,37.8645 174.1986,37.5873 173.3268,37.5873 C172.7901,37.5873 172.3341,37.6623 171.9582,37.8111 C171.5826,37.9599 171.264,38.124 171.0024,38.3031 C170.7423,38.4819 170.5296,38.646 170.3655,38.7948 C170.2014,38.9442 170.0637,39.0186 169.9518,39.0186 C169.803,39.0186 169.6917,38.9508 169.6173,38.817 L169.4268,38.493 C170.0082,37.9116 170.6193,37.473 171.2595,37.1742 C171.8997,36.8754 172.6266,36.7275 173.4387,36.7275 C174.0345,36.7275 174.5568,36.822 175.0032,37.0119 C175.4502,37.2021 175.8213,37.4742 176.1147,37.8279 C176.4093,38.1819 176.6316,38.6097 176.7804,39.1125 C176.9292,39.6162 177.0036,40.176 177.0036,40.794 L177.0036,48.0363 L176.5794,48.0363 L176.5794,48.0351 L176.5794,48.0351 Z M172.1097,47.4432 C172.5414,47.4432 172.9383,47.397 173.2998,47.3037 C173.6613,47.2101 173.9964,47.0799 174.306,46.9113 C174.6147,46.7442 174.9036,46.545 175.1727,46.3146 C175.4406,46.0833 175.7046,45.8337 175.9662,45.5658 L175.9662,42.672 C174.9087,42.7023 173.9976,42.7815 173.2341,42.9123 C172.4706,43.0428 171.8406,43.2192 171.3456,43.4436 C170.8506,43.6668 170.4855,43.9335 170.2506,44.2422 C170.0163,44.5512 169.899,44.9037 169.899,45.2985 C169.899,45.6711 169.9605,45.9927 170.0829,46.2651 C170.2059,46.5372 170.3676,46.7604 170.5686,46.9356 C170.7702,47.1108 171.0045,47.2386 171.273,47.3211 C171.5397,47.4021 171.8193,47.4432 172.1097,47.4432" id="Shape" fill="#000000"></path>
                <path d="M24.6729,24.0366 C26.4207,25.7841 29.2542,25.7841 31.002,24.0366 C31.1121,23.9265 31.2159,23.8116 31.3119,23.6931 C32.4279,22.5381 36.4068,19.1163 40.7379,23.7558 C40.8348,23.8752 40.9386,23.9907 41.0499,24.1014 C42.7974,25.8492 45.6312,25.8492 47.379,24.1014 C49.1268,22.3542 49.1268,19.5204 47.379,17.7726 C45.6315,16.0248 42.7977,16.0248 41.0499,17.7726 C40.9185,17.904 40.7979,18.0423 40.6863,18.1851 C39.5178,19.4076 35.6706,22.6413 31.1955,17.9151 C31.1331,17.8446 31.0689,17.775 31.0017,17.7078 C29.2542,15.96 26.4204,15.96 24.6726,17.7078 C22.9248,19.4556 22.9248,22.2888 24.6729,24.0366" id="Path" fill="#2D2D2D"></path>
                <path d="M31.002,24.1017 C32.7495,22.3539 32.7495,19.5204 31.002,17.7729 C30.8916,17.6628 30.777,17.559 30.6582,17.463 C29.5029,16.347 26.0811,12.3678 30.7209,8.037 C30.84,7.9398 30.9555,7.836 31.0665,7.7247 C32.8143,5.9775 32.8143,3.1434 31.0665,1.3959 C29.319,-0.3519 26.4852,-0.3519 24.7374,1.3959 C22.9899,3.1434 22.9899,5.9772 24.7374,7.7247 C24.8688,7.8564 25.0071,7.9767 25.1499,8.0886 C26.3724,9.2568 29.6061,13.1043 24.8799,17.5791 C24.8097,17.6418 24.7398,17.7057 24.6729,17.7729 C22.9251,19.5204 22.9251,22.3539 24.6729,24.1017 C26.4204,25.8495 29.2539,25.8495 31.002,24.1017" id="Path" fill="#2D2D2D"></path>
                <path d="M27.8496,16.3968 C25.3782,16.3968 23.3745,18.4005 23.3745,20.8719 C23.3745,21.0282 23.3826,21.1821 23.3982,21.3342 C23.4261,22.9398 23.031,28.173 16.6887,27.9552 C16.5357,27.9393 16.3806,27.9312 16.2231,27.9312 C13.752,27.9312 11.748,29.9346 11.748,32.406 C11.748,34.878 13.752,36.8814 16.2231,36.8814 C18.6945,36.8814 20.6985,34.878 20.6985,32.406 C20.6985,32.2203 20.6859,32.0373 20.6637,31.8576 C20.6253,30.1671 21.0597,25.1598 27.5661,25.338 C27.6597,25.3443 27.7545,25.3473 27.8496,25.3473 C30.3213,25.3473 32.3247,23.3439 32.3247,20.8722 C32.3247,18.4005 30.3213,16.3968 27.8496,16.3968" id="Path" fill="#2D2D2D"></path>
                <path d="M16.6608,27.9627 C13.1733,27.7545 9.3186,23.9412 9.228,20.5299 C9.2427,20.3781 9.2481,20.6844 9.228,20.5299 C8.9121,18.1548 7.1676,16.4955 4.7157,16.5112867 C2.2635,16.5267 0.1506,18.5319 0.3045,20.9793 C0.4476,23.2527 1.9251,25.1439 4.1919,25.389 C4.3749,25.4085 4.0131,25.4118 4.1919,25.389 C6.0483,25.5642 7.7541,26.3733 9.1251,27.7305 C10.5801,29.1702 11.6643,30.9327 11.8065,33.0039 C11.8128,33.0972 11.7948,32.9103 11.8065,33.0039 C12.1026,35.3631 14.0202,36.8073 16.2882,36.8517 C18.7401,36.8988 20.6361,34.8339 20.6997,32.3829 C20.7486,30.4881 19.2279,28.2093 16.6608,27.9627 C16.5066,27.948 16.8114,27.9462 16.6608,27.9627 M14.3058,28.3863 C14.3058,28.3863 13.6185,28.7079 13.062,29.265 C12.5118,29.8152 12.1962,30.5085 12.1962,30.5085 C12.1962,30.5085 11.6877,28.9323 9.8088,27.0531 C8.5686,25.8132 6.7173,24.9918 6.7173,24.9918 C6.7173,24.9918 7.3047,24.7503 7.9263,24.1293 C8.571,23.4843 8.8191,22.8825 8.8191,22.8825 C8.8191,22.8825 9.3879,24.5082 10.8648,25.9674 C12.3426,27.4248 14.3058,28.3863 14.3058,28.3863" id="Shape" fill="#2D2D2D"></path>
            </g>
        </g>
    </g>
</svg>