<svg width="122" height="51" viewBox="0 0 122 51" fill="none" xmlns="http://www.w3.org/2000/svg">
<path d="M58.823 9.45465H52.9498V16.4637H47.132V9.45465H41.2588V28.8473H47.132V21.1179H52.9498V28.8473H58.823V9.45465ZM68.3081 13.4163C63.8201 13.4163 61.3267 15.217 61.2159 18.4307H66.729C66.7567 17.4887 67.1445 17.0455 68.225 17.0455C69.3054 17.0455 69.5824 17.461 69.5824 18.4861V19.0678L67.1722 19.3726C62.3241 19.9821 60.6341 21.672 60.6341 24.6363C60.6341 27.3236 62.4072 29.2351 65.5377 29.2351C67.3939 29.2351 68.7513 28.7364 69.721 27.4067C69.8318 27.933 70.0257 28.4317 70.3027 28.8473H75.6219C75.1786 27.7668 75.1232 26.7972 75.1232 25.4674V18.1536C75.1232 15.1339 73.1839 13.4163 68.3081 13.4163ZM69.5824 22.1984V23.2511C69.5824 24.387 68.7513 25.2181 67.5324 25.2181C66.7567 25.2181 66.2303 24.8025 66.2303 23.9991C66.2303 23.168 66.7844 22.6416 68.3635 22.3923L69.5824 22.1984ZM79.9781 6.51805C78.3712 6.51805 76.9306 7.73702 76.9306 9.37154C76.9306 10.9784 78.3712 12.225 79.9781 12.225C81.6126 12.225 83.0255 10.9784 83.0255 9.37154C83.0255 7.73702 81.6126 6.51805 79.9781 6.51805ZM82.7484 13.8318H77.2077V28.8473H82.7484V13.8318ZM90.513 9.45465H84.9723V28.8473H90.513V24.7748L91.8982 23.3342L95.0288 28.8473H101.428L95.6659 19.4834L101.179 13.8318H94.9733L90.513 18.7354V9.45465ZM116.673 13.8318H111.132V21.949C111.132 23.4173 110.328 24.5255 108.999 24.5255C107.974 24.5255 107.392 24.0545 107.392 22.5862V13.8318H101.851V23.9437C101.851 27.7114 104.123 29.2351 106.755 29.2351C108.86 29.2351 110.245 28.5148 111.409 26.9634V28.8473H116.673V13.8318Z" fill="#0A090C"/>
<path d="M46.9056 34.5394H41.076V44.8183H41.9571V40.1781H46.5679V39.3705H41.9571V35.3323H46.9056V34.5394ZM52.7311 34.3485C50.4844 34.3485 48.1496 35.861 48.1496 39.6642C48.1496 43.7023 50.7194 45.0092 52.7311 45.0092C54.9925 45.0092 57.3272 43.4967 57.3272 39.6935C57.3272 35.6554 54.7575 34.3485 52.7311 34.3485ZM52.7311 35.1414C54.7575 35.1414 56.3875 36.6539 56.3875 39.6935C56.3875 42.6891 54.7282 44.2163 52.7311 44.2163C50.7047 44.2163 49.0747 42.7038 49.0747 39.6642C49.0747 36.6686 50.7047 35.1414 52.7311 35.1414ZM62.4176 34.5394H59.2018V44.8183H60.0828V40.3984H62.5791L65.3544 44.8183H66.4117L63.4896 40.2662C65.2663 40.0166 66.0299 38.8125 66.0299 37.4469C66.0299 35.8316 64.9433 34.5394 62.4176 34.5394ZM62.5057 35.3323C64.2091 35.3323 65.1048 36.1106 65.1048 37.4469C65.1048 38.8272 64.2091 39.6348 62.6819 39.6348H60.0828V35.3323H62.5057ZM77.8549 34.5394H70.4541V35.3323H73.714V44.8183H74.595V35.3323H77.8549V34.5394ZM85.355 34.5394H79.3638V44.8183H85.4871V44.0254H80.2449V39.9725H85.0466V39.1796H80.2449V35.3323H85.355V34.5394ZM93.6801 44.8183H94.6639L91.081 34.5394H89.9063L86.3233 44.8183H87.2484L87.9679 42.6744H92.9459L93.6801 44.8183ZM90.4789 35.303L92.6816 41.8815H88.2323L90.4789 35.303ZM105.779 34.5394H104.325L100.904 43.8932L97.3649 34.5394H95.9552V44.8183H96.8069V35.4792L100.36 44.8183H101.403L104.898 35.4058V44.8183H105.779V34.5394ZM111.317 45.0092C113.902 45.0092 115.165 43.7317 115.165 42.043C115.165 40.4131 114.195 39.4733 111.699 39.0474C109.379 38.651 108.645 38.1517 108.645 37.021C108.645 35.8757 109.614 35.1414 111.259 35.1414C112.933 35.1414 113.872 35.905 114.386 36.6245L115.077 36.1253C114.357 35.1268 113.109 34.3485 111.259 34.3485C109.1 34.3485 107.734 35.4351 107.734 37.0504C107.734 38.6363 108.909 39.4292 111.126 39.7816C113.637 40.1781 114.225 40.883 114.225 42.0871C114.225 43.3499 113.124 44.2163 111.332 44.2163C109.878 44.2163 108.66 43.6729 107.852 42.7038L107.206 43.2618C108.175 44.5099 109.834 45.0092 111.317 45.0092Z" fill="#0A090C"/>
<path d="M26.9535 7.57525L26.7191 7.49198C26.6166 7.46737 26.5107 7.45773 26.4048 7.46366C26.2387 7.47296 26.077 7.52031 25.932 7.60206C24.3243 8.25815 22.5376 8.99152 20.7595 9.73912C20.4391 9.87382 20.4404 10.3275 20.7612 10.4611L25.0749 12.2568C25.2211 12.3177 25.3164 12.4606 25.3166 12.619C25.3189 14.0318 25.3376 15.3544 25.32 16.7692C25.3181 16.9248 25.2238 17.0643 25.0804 17.1247L13.723 21.9065C13.4645 22.0154 13.1786 21.8255 13.1786 21.545L13.179 10.8943C13.179 10.4857 12.9503 10.1751 12.6071 10.002C12.5744 9.98444 12.5413 9.96786 12.5062 9.95323L6.82764 7.54794C6.67457 7.48295 6.50862 7.45399 6.34258 7.46329C6.17655 7.47259 6.01486 7.5199 5.87001 7.60157C4.32455 8.23231 2.4797 8.99335 0.838684 9.6794C0.521292 9.81209 0.517255 10.2597 0.831891 10.3988L5.05922 12.2677C5.20125 12.3305 5.29286 12.4711 5.29286 12.6264V26.2194C5.32598 26.3676 5.38593 26.4948 5.46677 26.5997C5.54917 26.7372 5.68472 26.8581 5.88854 26.9546L18.3797 32.8989L18.447 32.9252C18.5825 32.993 18.7356 33.0305 18.897 33.0305L18.9697 33.0281C19.2277 33.0083 19.4687 32.8915 19.6442 32.7013C19.8196 32.5111 19.9166 32.2615 19.9156 32.0027V27.8086C19.9156 27.6378 20.0262 27.4866 20.1891 27.4348L24.8143 25.9649C25.0673 25.8845 25.3254 26.0734 25.3253 26.3389L25.3197 44.3674C25.3196 44.5269 25.4161 44.6705 25.5636 44.7307L25.7777 44.8181C25.8464 44.846 25.9178 44.8669 25.9908 44.8805C26.2842 44.9807 26.6038 44.972 26.8913 44.8561L32.5545 42.5396C32.772 42.4445 32.9197 42.3377 33.0124 42.2178C33.1543 42.0686 33.2415 41.8721 33.2415 41.5907V10.8953C33.2415 10.5905 33.1026 10.3414 32.8905 10.1634C32.7988 10.0771 32.6906 10.0054 32.5687 9.95372L26.9535 7.57525Z" fill="#0A090C"/>
<path d="M13.2027 36.66C13.2042 36.5072 13.1168 36.3675 12.9788 36.3019L6.676 33.3065C6.55234 33.2544 6.41959 33.2274 6.28541 33.2269C6.15123 33.2264 6.0183 33.2526 5.89429 33.3038C5.77028 33.3551 5.65765 33.4304 5.56293 33.5254C5.46821 33.6204 5.39326 33.7333 5.34243 33.8575C5.322 33.9067 5.30545 33.9572 5.29286 34.0087V44.3657C5.29286 44.5221 5.38583 44.6636 5.52943 44.7257L5.85928 44.8683C5.8931 44.8821 5.9276 44.8942 5.96265 44.9044C6.23131 45.0351 6.55166 45.0556 6.85056 44.9337L12.4651 42.6966C12.6679 42.6131 12.8414 42.4712 12.9635 42.289C13.0856 42.1068 13.1509 41.8925 13.1511 41.6731C13.154 41.6429 13.155 41.6127 13.155 41.5819L13.2027 36.66Z" fill="#0A090C"/>
</svg>
