<?xml version="1.0" encoding="UTF-8"?>
<svg width="18px" height="16px" viewBox="0 0 18 16" version="1.1" xmlns="http://www.w3.org/2000/svg" xmlns:xlink="http://www.w3.org/1999/xlink">
    <!-- Generator: Sketch 62 (91390) - https://sketch.com -->
    <title>icon-medium</title>
    <desc>Created with Sketch.</desc>
    <g id="Page-1" stroke="none" stroke-width="1" fill="none" fill-rule="evenodd">
        <g id="Extra-Large-Desktop/1440" transform="translate(-224.000000, -417.000000)" fill="#0A090C" fill-rule="nonzero">
            <g id="social-media" transform="translate(177.500000, 415.000000)">
                <path d="M63.3759064,5.23 L58.5591064,2.9908 C58.1651355,2.80868297 57.697268,2.93628321 57.4503064,3.2932 L54.2463064,7.9516 L52.5183064,5.5108 L52.5183064,5.5108 C52.4764994,5.45848133 52.4252035,5.41451348 52.3671064,5.3812 L52.3671064,5.3524 L52.3671064,5.3524 L47.8959064,3.1276 C47.6193222,2.99072013 47.291661,3.00638144 47.0293929,3.16901697 C46.7671248,3.33165249 46.6074424,3.61819871 46.6070953,3.9268 L46.6070953,14.41 C46.605453,14.7401104 46.7890212,15.0432761 47.0823064,15.1948 L51.3303064,17.5348 C51.4531606,17.5965653 51.5887997,17.6286255 51.7263064,17.6284 C52.2138169,17.6284634 52.6112433,17.2374472 52.6191064,16.75 L52.6191064,12.5092 L62.6055064,17.5492 C62.7263616,17.6093976 62.8592961,17.6414004 62.9943064,17.6428 C63.4873862,17.6428 63.8871298,17.2430798 63.8871298,16.75 L63.8871298,6.0436 C63.8896176,5.69600959 63.6901592,5.37856168 63.3759064,5.23 Z M58.2495064,4.0348 L62.5695064,6.0508 L58.0335064,13.3012 L54.9087064,8.8948 L58.2495064,4.0348 Z M51.5391064,16.4188 L47.6871064,14.2948 L47.6871064,4.2148 L51.5391064,6.1588 L51.5391064,16.4188 Z M52.6191064,7.5196 L56.7807064,13.402 L52.6191064,11.2996 L52.6191064,7.5196 Z M58.6599064,14.3452 L62.8071064,7.7068 L62.8071064,16.4332 L58.6599064,14.3452 Z" id="icon-medium"></path>
            </g>
        </g>
    </g>
</svg>