<?xml version="1.0" encoding="UTF-8"?>
<svg width="18px" height="18px" viewBox="0 0 18 18" version="1.1" xmlns="http://www.w3.org/2000/svg" xmlns:xlink="http://www.w3.org/1999/xlink">
    <!-- Generator: Sketch 62 (91390) - https://sketch.com -->
    <title>icon-github</title>
    <desc>Created with Sketch.</desc>
    <g id="Page-1" stroke="none" stroke-width="1" fill="none" fill-rule="evenodd">
        <g id="Extra-Large-Desktop/1440" transform="translate(-415.000000, -416.000000)" fill="#0A090C" fill-rule="nonzero">
            <g id="social-media" transform="translate(177.500000, 415.000000)">
                <path d="M246.358777,1.45 C242.071171,1.45635392 238.436842,4.6060941 237.821131,8.84926559 C237.20542,13.0924371 239.794613,17.1452501 243.903577,18.37 C244.176482,18.4520748 244.472133,18.4000493 244.700626,18.2297437 C244.929119,18.0594382 245.063453,17.7909784 245.062777,17.506 L245.062777,15.85 C245.062183,15.6869012 244.987904,15.532809 244.86068,15.4307509 C244.733457,15.3286928 244.566922,15.2896043 244.407577,15.3244 C244.035877,15.4679999 243.62129,15.451159 243.262462,15.2778845 C242.903634,15.10461 242.632646,14.7903939 242.513977,14.41 L242.434777,14.2156 L242.564377,14.3092 C243.141328,14.8975155 244.033373,15.0432744 244.767577,14.6692 C244.938186,14.5940219 245.057947,14.436155 245.084377,14.2516 C245.127217,13.9135796 245.219397,13.5836693 245.357977,13.2724 C245.51912,13.1315396 245.581861,12.908801 245.517933,12.7045422 C245.454005,12.5002833 245.275473,12.3530578 245.062777,12.3292 C243.334777,12.1348 242.290777,11.854 242.290777,9.694 C242.283642,9.12037616 242.497646,8.5660288 242.888377,8.146 C243.029089,7.99181822 243.068337,7.77034629 242.989177,7.5772 C242.860841,7.21343008 242.845779,6.81930376 242.945977,6.4468 C243.397708,6.57892198 243.822042,6.79108895 244.198777,7.0732 C244.33024,7.16043171 244.492956,7.18667624 244.645177,7.1452 C245.180183,6.99894486 245.732144,6.92389761 246.286777,6.922 C246.843875,6.92249381 247.398399,6.99756044 247.935577,7.1452 C248.087746,7.18765357 248.250873,7.1613427 248.381977,7.0732 C248.76443,6.79179365 249.19335,6.57977058 249.649177,6.4468 C249.751242,6.81863283 249.738695,7.21261503 249.613177,7.5772 C249.534018,7.77034629 249.573266,7.99181822 249.713977,8.146 C250.102731,8.56674767 250.314209,9.1212337 250.304377,9.694 C250.304377,11.854 249.253177,12.1276 247.525177,12.322 C247.310594,12.3435853 247.129432,12.4907799 247.064377,12.6964 C246.997688,12.9005955 247.060143,13.1248669 247.222777,13.2652 C247.433212,13.6565531 247.539805,14.0953197 247.532377,14.5396 L247.532377,17.542 C247.532377,18.0390563 247.935321,18.442 248.432377,18.442 C248.513557,18.4537172 248.595998,18.4537172 248.677177,18.442 C252.893918,17.3265229 255.617943,13.2430349 255.028281,8.92128912 C254.438619,4.59954334 250.720219,1.3950642 246.358777,1.45 Z M248.633977,17.29 L248.633977,14.5396 C248.630355,14.1194924 248.564852,13.7022111 248.439577,13.3012 C249.829177,13.078 251.405977,12.4516 251.405977,9.7012 C251.413874,8.96669836 251.178429,8.25023887 250.736377,7.6636 C250.883579,7.00630547 250.823203,6.31952943 250.563577,5.698 C250.504144,5.54689337 250.37987,5.43055187 250.225177,5.3812 C250.037977,5.3236 249.332377,5.2012 248.000377,6.0436 C246.887788,5.77990862 245.728967,5.77990862 244.616377,6.0436 C243.284377,5.194 242.578777,5.3236 242.391577,5.3812 C242.231425,5.42676008 242.101246,5.54365529 242.038777,5.698 C241.778684,6.31941425 241.718296,7.00633743 241.865977,7.6636 C241.423926,8.25023887 241.188481,8.96669836 241.196377,9.7012 C241.196377,12.4588 242.787577,13.078 244.177177,13.3012 C244.126777,13.474 244.083577,13.6396 244.054777,13.7764 C243.752377,13.8556 243.586777,13.7332 243.190777,13.438 C242.597542,12.9622188 241.90677,12.6229786 241.167577,12.4444 C240.939762,12.3906461 240.703255,12.4897842 240.581863,12.6899172 C240.46047,12.8900502 240.481837,13.1456037 240.634777,13.3228 C241.019712,13.7337775 241.307576,14.2258526 241.477177,14.7628 C241.835014,15.8320238 242.856181,16.5362771 243.982777,16.4908 L243.982777,17.29 C240.442389,16.1454073 238.261224,12.5948591 238.840587,8.91942964 C239.419949,5.24400022 242.587565,2.53658741 246.308377,2.53658741 C250.029189,2.53658741 253.196805,5.24400022 253.776168,8.91942964 C254.355531,12.5948591 252.174366,16.1454073 248.633977,17.29 Z" id="icon-github"></path>
            </g>
        </g>
    </g>
</svg>