<?xml version="1.0" encoding="UTF-8"?>
<svg width="20px" height="17px" viewBox="0 0 20 17" version="1.1" xmlns="http://www.w3.org/2000/svg" xmlns:xlink="http://www.w3.org/1999/xlink">
    <!-- Generator: Sketch 62 (91390) - https://sketch.com -->
    <title>icon-animator</title>
    <desc>Created with Sketch.</desc>
    <g id="Page-1" stroke="none" stroke-width="1" fill="none" fill-rule="evenodd">
        <g id="Extra-Large-Desktop/1440" transform="translate(-366.000000, -417.000000)" fill-rule="nonzero" stroke="#0A090C" stroke-width="1.08">
            <g id="social-media" transform="translate(177.500000, 415.000000)">
                <path d="M207.027029,16.3691023 C207.026267,16.7003145 206.91725,16.9878069 206.728366,17.1922578 C206.54512,17.3906059 206.288642,17.5063728 206.005382,17.5063728 L203.088985,17.5063728 C202.805564,17.5063728 202.548958,17.3915954 202.363218,17.2059766 C202.19375,17.0366184 202.083283,16.8082785 202.065417,16.5540223 C202.742101,14.3762384 203.459561,13.2419917 204.317916,12.0767394 C204.56374,12.0062783 204.635503,12.0412194 204.694351,12.1097642 L206.882577,15.8847519 C206.971328,16.037859 207.018442,16.2036804 207.027029,16.3691023 Z M202.96035,9.11837668 C201.935055,11.6712529 200.290817,13.7435868 198.239761,15.1895311 C196.130317,16.6766383 193.59175,17.4999258 190.861491,17.5063326 C190.621654,17.4732995 190.402913,17.3412907 190.241958,17.1551611 C190.074478,16.9614868 189.968425,16.7064078 189.968425,16.4263728 C189.968425,16.2361681 190.018658,16.0493368 190.114041,15.8847773 L197.563699,3.0322996 C197.713256,2.77427646 197.95324,2.60130049 198.220339,2.53021968 C198.487439,2.45913886 198.781656,2.4899532 199.039679,2.63951067 C199.202607,2.73394871 199.33801,2.86934811 199.432453,3.03227421 L202.96035,9.11837668 Z M207.340127,8.17793622 L206.116861,9.52893653 C206.071596,9.58512697 206.014764,9.62644253 205.951038,9.62644253 C205.887471,9.62644253 205.830783,9.58516138 205.785474,9.52892988 L204.562218,8.17794008 C204.427629,8.01660658 204.329451,7.8726837 204.331087,7.74428227 C204.331117,7.74198165 204.331178,7.73967686 204.33127,7.73735773 C204.331177,7.73506792 204.331116,7.73278234 204.331087,7.73050096 C204.329451,7.60249388 204.427713,7.45868133 204.562217,7.29745523 L205.785474,5.94646392 C205.830783,5.89023243 205.887471,5.84895127 205.951038,5.84895127 L207.340124,7.29745491 C207.474903,7.45901153 207.573219,7.60303013 207.571662,7.73148996 C207.571635,7.73371194 207.571578,7.73593786 207.571492,7.73818688 C207.571579,7.74040322 207.571637,7.74261551 207.571665,7.74482377 C207.573272,7.872669 207.474788,8.0165296 207.340127,8.17793622 Z" id="icon-animator"></path>
            </g>
        </g>
    </g>
</svg>