<?xml version="1.0" encoding="UTF-8"?>
<svg width="18px" height="18px" viewBox="0 0 18 18" version="1.1" xmlns="http://www.w3.org/2000/svg" xmlns:xlink="http://www.w3.org/1999/xlink">
    <!-- Generator: Sketch 62 (91390) - https://sketch.com -->
    <title>icon-linkedin</title>
    <desc>Created with Sketch.</desc>
    <g id="Page-1" stroke="none" stroke-width="1" fill="none" fill-rule="evenodd" stroke-linecap="round" stroke-linejoin="round">
        <g id="Extra-Large-Desktop/1440" transform="translate(-177.000000, -416.000000)" stroke="#0A090C" stroke-width="1.08">
            <g id="social-media" transform="translate(177.500000, 415.000000)">
                <path d="M4.0824,17.4736 L0.5832,17.4736 L0.5832,7.444 L4.0824,7.444 L4.0824,17.4736 Z M11.3472,10.7128 C10.4962397,10.7128 9.8064,11.4026397 9.8064,12.2536 L9.8064,17.4736 L6.1272,17.4736 L6.1272,7.444 L9.8064,7.444 L9.8064,8.5888 C10.6687505,7.85875898 11.7582245,7.45147898 12.888,7.4368 C15.1704,7.4368 16.7544,9.1288 16.7544,12.34 L16.7544,17.4736 L12.888,17.4736 L12.888,12.2536 C12.8899154,11.8437084 12.7284276,11.4499476 12.4392636,11.1594325 C12.1500997,10.8689173 11.7570961,10.7055955 11.3472,10.7056 L11.3472,10.7128 Z M4.1472,3.9736 C4.1472,4.96771255 3.34131255,5.7736 2.3472,5.7736 C1.35308745,5.7736 0.5472,4.96771255 0.5472,3.9736 C0.5472,2.97948745 1.35308745,2.1736 2.3472,2.1736 C3.33568441,2.18150813 4.13283163,2.98508396 4.1328,3.9736 L4.1472,3.9736 Z" id="icon-linkedin"></path>
            </g>
        </g>
    </g>
</svg>