<?xml version="1.0" encoding="UTF-8"?>
<svg width="19px" height="14px" viewBox="0 0 19 14" version="1.1" xmlns="http://www.w3.org/2000/svg" xmlns:xlink="http://www.w3.org/1999/xlink">
    <!-- Generator: Sketch 62 (91390) - https://sketch.com -->
    <title>icon-twitter</title>
    <desc>Created with Sketch.</desc>
    <g id="Page-1" stroke="none" stroke-width="1" fill="none" fill-rule="evenodd">
        <g id="Extra-Large-Desktop/1440" transform="translate(-462.000000, -418.000000)" fill="#0A090C" fill-rule="nonzero">
            <g id="social-media" transform="translate(177.500000, 415.000000)">
                <path d="M285.390684,14.9752 C285.338235,15.2245997 285.467295,15.4767172 285.700284,15.58 C287.571102,16.4546801 289.604308,16.9280322 291.669084,16.9696 C293.519084,16.9973723 295.336568,16.4816675 296.896284,15.4864 C299.464413,13.8061446 301.021173,10.9520836 301.043484,7.8832 L301.043484,7.5592 L302.332284,6.6304 C302.498462,6.5176783 302.58837,6.32205704 302.565697,6.12253939 C302.543025,5.92302173 302.411517,5.75256136 302.224284,5.68 L301.223484,5.248 L301.785084,4.024 C301.864738,3.83005581 301.824929,3.60753504 301.682974,3.45323655 C301.54102,3.29893806 301.322582,3.24075593 301.122684,3.304 L299.560284,3.8224 C298.902998,3.30633568 298.091954,3.02500476 297.256284,3.0232 C295.170291,3.02716201 293.480246,4.71720697 293.476284,6.8032 L293.476284,7.0624 C291.517884,7.2928 289.645884,6.292 287.586684,3.9304 C287.450972,3.7755605 287.239018,3.71137022 287.040202,3.76489761 C286.841386,3.81842501 286.690311,3.98035377 286.650684,4.1824 C286.354807,5.40666723 286.479062,6.69485603 287.003484,7.84 L286.002684,7.7104 C285.828151,7.68333712 285.651414,7.74333619 285.529428,7.87106186 C285.407443,7.99878752 285.355629,8.17809481 285.390684,8.3512 C285.553408,9.53346761 286.252009,10.5747297 287.284284,11.1736 L286.816284,11.3464 C286.679795,11.4004632 286.571201,11.5077666 286.51551,11.6435988 C286.459819,11.779431 286.461831,11.9320831 286.521084,12.0664 C287.017772,13.0734287 287.974488,13.7748408 289.084284,13.9456 C288.076811,14.3365404 287.004098,14.5320233 285.923484,14.5216 C285.658692,14.5217193 285.43305,14.7138195 285.390684,14.9752 Z M291.085884,14.0824 C291.266227,13.9489685 291.345288,13.7179317 291.284503,13.5019856 C291.223718,13.2860395 291.035749,13.1301669 290.812284,13.1104 C289.285884,12.988 288.385884,12.8008 287.809884,12.124 L289.156284,11.6344 C289.391712,11.5488981 289.537442,11.3127268 289.508276,11.0639568 C289.479109,10.8151869 289.282705,10.6191278 289.033884,10.5904 C287.98159,10.5500738 287.052433,9.89203836 286.665084,8.9128 L288.205884,9.1432 C288.441493,9.17774107 288.671915,9.05387282 288.77307,8.83829806 C288.874224,8.62272329 288.822229,8.36633591 288.645084,8.2072 C287.893547,7.52246492 287.502519,6.52760598 287.586684,5.5144 C289.746684,7.6744 291.906684,8.5168 294.131484,8.056 C294.381624,8.00494597 294.561833,7.7856915 294.563484,7.5304 L294.563484,6.8104 C294.558171,5.73949014 295.18961,4.76778438 296.170349,4.33763583 C297.151087,3.90748729 298.293642,4.10112556 299.077884,4.8304 C299.22316,4.96487915 299.430375,5.00908506 299.617884,4.9456 L300.287484,4.7224 L300.013884,5.32 C299.955849,5.45565358 299.955849,5.60914642 300.013884,5.7448 C300.078684,5.9104 300.093084,5.9464 300.935484,6.3136 L300.215484,6.8464 C300.074745,6.9483545 299.991675,7.11181317 299.992284,7.2856 L299.992284,7.8832 C299.973209,10.5855711 298.602945,13.0990735 296.341884,14.5792 C294.181884,16.0192 291.337884,16.2568 288.263484,15.364 C289.278848,15.1249135 290.237646,14.6895407 291.085884,14.0824 L291.085884,14.0824 Z" id="icon-twitter"></path>
            </g>
        </g>
    </g>
</svg>