<?xml version="1.0" encoding="UTF-8"?>
<svg width="17px" height="18px" viewBox="0 0 17 18" version="1.1" xmlns="http://www.w3.org/2000/svg" xmlns:xlink="http://www.w3.org/1999/xlink">
    <!-- Generator: Sketch 62 (91390) - https://sketch.com -->
    <title>icon-email</title>
    <desc>Created with Sketch.</desc>
    <g id="Page-1" stroke="none" stroke-width="1" fill="none" fill-rule="evenodd" stroke-linecap="round" stroke-linejoin="round">
        <g id="Extra-Large-Desktop/1440" transform="translate(-907.000000, -7881.000000)" stroke="#0A090C" stroke-width="1.05">
            <g id="social-media" transform="translate(860.000000, 7856.635963)">
                <g id="icon-email" transform="translate(47.555330, 25.100000)">
                    <path d="M12.95,9.016 L12.95,1.575 C12.95,0.995101013 12.479899,0.525 11.9,0.525 L3.5,0.525 C2.92010101,0.525 2.45,0.995101013 2.45,1.575 L2.45,9.016" id="Path"></path>
                    <path d="M14.1988,8.0255 C14.3565452,7.90041173 14.5719295,7.87654635 14.7532326,7.96406682 C14.9345356,8.05158728 15.049823,8.23507788 15.05,8.4364 L15.05,15.2264 C15.05,15.806299 14.579899,16.2764 14,16.2764 L1.4,16.2764 C0.820101013,16.2764 0.35,15.806299 0.35,15.2264 L0.35,8.4364 C0.350177039,8.23507788 0.465464365,8.05158728 0.646767411,7.96406682 C0.828070456,7.87654635 1.04345479,7.90041173 1.2012,8.0255 L6.4029,12.1513 C7.16425878,12.749268 8.23574122,12.749268 8.9971,12.1513 L14.1988,8.0255 Z" id="Path"></path>
                    <path d="M8.75,8.7458 C7.4564369,9.20314355 6.01563525,8.77059394 5.18786747,7.67639601 C4.36009969,6.58219807 4.33578812,5.0780646 5.12776132,3.95768651 C5.91973452,2.83730842 7.34580446,2.35842107 8.65347224,2.77372047 C9.96114002,3.18901987 10.8495856,4.40296923 10.85,5.775" id="Path"></path>
                    <circle id="Oval" cx="7.7" cy="5.775" r="1.05"></circle>
                    <path d="M8.75,5.775 C8.75,6.35489899 9.22010101,6.825 9.8,6.825 C10.379899,6.825 10.85,6.35489899 10.85,5.775" id="Path"></path>
                </g>
            </g>
        </g>
    </g>
</svg>