<?xml version="1.0" encoding="UTF-8"?>
<svg width="18px" height="18px" viewBox="0 0 18 18" version="1.1" xmlns="http://www.w3.org/2000/svg" xmlns:xlink="http://www.w3.org/1999/xlink">
    <!-- Generator: Sketch 62 (91390) - https://sketch.com -->
    <title>icon-dribbble</title>
    <desc>Created with Sketch.</desc>
    <g id="Page-1" stroke="none" stroke-width="1" fill="none" fill-rule="evenodd">
        <g id="Extra-Large-Desktop/1440" transform="translate(-271.000000, -416.000000)" fill="#0A090C" fill-rule="nonzero">
            <g id="social-media" transform="translate(177.500000, 415.000000)">
                <path d="M96.1654127,15.1048 L96.1654127,15.1048 C98.466182,17.9339058 102.302491,19.0019527 105.734213,17.7688 L105.856613,17.7256 C109.021652,16.5650994 111.222691,13.6697356 111.494213,10.3096 L111.494213,10.3096 C111.495929,10.2856307 111.495929,10.2615693 111.494213,10.2376 C111.494213,10.0432 111.494213,9.856 111.494213,9.6616 C111.495173,7.56072459 110.726799,5.53221721 109.334213,3.9592 C109.322209,3.93156169 109.307751,3.90505553 109.291013,3.88 L109.240613,3.88 C106.583373,0.926988509 102.254932,0.166466268 98.7502127,2.0368 L98.7070127,2.0368 C96.2316564,3.3943447 94.575677,5.87562551 94.2718127,8.6824 L94.2718127,8.6824 C94.2718127,8.6824 94.2718127,8.6824 94.2718127,8.6824 C94.2349811,9.00029469 94.2157518,9.31998245 94.2142081,9.64 C94.212164,11.6201522 94.8937544,13.5403043 96.1438127,15.076 L96.1654127,15.1048 Z M97.3246127,14.7736 C99.3270236,12.961379 101.749697,11.6770406 104.373413,11.0368 C104.875419,12.6351058 105.130359,14.3007115 105.129415,15.976 C105.129415,16.2712 105.129415,16.5664 105.129415,16.8544 C102.353031,17.7185511 99.3271755,16.9088545 97.3534127,14.7736 L97.3246127,14.7736 Z M106.195013,16.408 C106.195013,16.264 106.195013,16.12 106.195013,15.976 C106.195303,14.2236464 105.933197,12.4811268 105.417413,10.8064 C106.353755,10.6382521 107.302902,10.5515279 108.254213,10.5472 C108.942303,10.5512823 109.629684,10.5921406 110.313413,10.6696 C109.972292,13.1450648 108.43108,15.2925224 106.195013,16.408 L106.195013,16.408 Z M108.830213,5.0248 C109.848174,6.33230048 110.405096,7.93977871 110.414213,9.5968 C109.696871,9.5179797 108.975866,9.47712273 108.254213,9.4744 C107.181836,9.47502508 106.11177,9.57383756 105.057413,9.7696 C104.837403,9.15559281 104.58259,8.55461902 104.294213,7.9696 C105.950543,7.23057979 107.481051,6.23696466 108.830213,5.0248 L108.830213,5.0248 Z M108.110213,4.2184 C106.812804,5.38190186 105.337289,6.32992652 103.739813,7.0264 C102.737146,5.3655936 101.464483,3.88365997 99.9742127,2.6416 C102.759397,1.48847536 105.963967,2.10898891 108.117413,4.2184 L108.110213,4.2184 Z M98.9518127,3.16 C100.446854,4.34585116 101.723588,5.78339532 102.724613,7.408 C100.957632,8.04348516 99.0943915,8.3698567 97.2166127,8.3728 C96.615104,8.36929175 96.0142256,8.33323905 95.4166127,8.2648 C95.8104629,6.13581388 97.0973891,4.27750292 98.9518127,3.16 L98.9518127,3.16 Z M95.3086127,9.3592 C95.9420731,9.43194344 96.5790018,9.47039952 97.2166127,9.4744 C99.2815349,9.47085743 101.329388,9.10029348 103.264613,8.38 C103.534643,8.91107055 103.775012,9.45670842 103.984613,10.0144 C101.251924,10.7121576 98.7309245,12.0665768 96.6406127,13.96 C95.7583284,12.6926789 95.2881796,11.18418 95.2941554,9.64 C95.2941554,9.5464 95.3014127,9.4528 95.3086127,9.3592 Z" id="icon-dribbble"></path>
            </g>
        </g>
    </g>
</svg>