<?xml version="1.0" encoding="UTF-8"?>
<svg width="20px" height="19px" viewBox="0 0 20 19" version="1.1" xmlns="http://www.w3.org/2000/svg" xmlns:xlink="http://www.w3.org/1999/xlink">
    <!-- Generator: Sketch 62 (91390) - https://sketch.com -->
    <title>icon-ph</title>
    <desc>Created with Sketch.</desc>
    <g id="Page-1" stroke="none" stroke-width="1" fill="none" fill-rule="evenodd">
        <g id="Extra-Large-Desktop/1440" transform="translate(-318.000000, -415.000000)" fill="#0A090C" fill-rule="nonzero">
            <g id="social-media" transform="translate(177.500000, 415.000000)">
                <path d="M150.490119,0.46189 C155.468924,0.46189 159.521566,4.42718492 159.662232,9.37196013 L159.666008,9.6377788 L159.662232,9.90359619 C159.521565,14.8483484 155.468899,18.8136676 150.490119,18.8136676 C145.422437,18.8136676 141.314205,14.7054443 141.314205,9.6377788 C141.314205,4.57008827 145.422436,0.46189 150.490119,0.46189 Z M150.490119,1.54189 C146.018902,1.54189 142.394205,5.16655775 142.394205,9.6377788 C142.394205,14.1089763 146.018904,17.7336676 150.490119,17.7336676 C154.878538,17.7336676 158.451471,14.2420018 158.582296,9.88529128 L158.586008,9.6377788 L158.582296,9.39026497 C158.451471,5.03353149 154.878562,1.54189 150.490119,1.54189 Z M151.641583,4.7798344 C153.609127,4.7798344 155.204146,6.37485324 155.204146,8.3424232 C155.204146,10.2464821 153.710365,11.8016936 151.830808,11.9000485 L151.641608,11.9049868 L149.734,11.904 L149.734738,13.955698 C149.734738,14.2241084 149.538908,14.4467801 149.282329,14.4886303 L149.194738,14.495698 L147.467555,14.495698 C147.199145,14.495698 146.976473,14.2998673 146.934623,14.0432888 L146.927555,13.955698 L146.927555,5.3198344 C146.927555,5.05142401 147.123386,4.82875232 147.379965,4.78690209 L147.467555,4.7798344 L151.641583,4.7798344 Z M151.641583,5.8598344 L148.007,5.859 L148.007,13.415 L148.654,13.415 L148.654738,11.3649868 C148.654738,11.0965764 148.850569,10.8739047 149.107147,10.8320545 L149.194738,10.8249868 L151.641608,10.8249868 C153.012651,10.8249868 154.124146,9.71348463 154.124146,8.3424232 C154.124146,7.02616486 153.0998,5.94916869 151.804811,5.86511501 L151.641583,5.8598344 Z M151.641583,6.5070172 C152.655219,6.5070172 153.476913,7.32871104 153.476913,8.3423476 C153.476913,9.30530826 152.735329,10.0951203 151.792109,10.1716941 L151.641583,10.1777788 L149.194713,10.1777788 C148.926303,10.1777788 148.703631,9.98194815 148.661781,9.7253696 L148.654713,9.6377788 L148.654713,7.0470172 C148.654713,6.77860681 148.850544,6.55593512 149.107122,6.51408489 L149.194713,6.5070172 L151.641583,6.5070172 Z M151.641583,7.5870172 L149.734,7.587 L149.734,9.097 L151.641583,9.0977788 C152.058719,9.0977788 152.396913,8.75954886 152.396913,8.3423476 C152.396913,7.95994265 152.112764,7.64392609 151.744079,7.59391226 L151.641583,7.5870172 Z" id="icon-ph"></path>
            </g>
        </g>
    </g>
</svg>