<?xml version="1.0" encoding="UTF-8"?>
<svg width="18px" height="18px" viewBox="0 0 18 18" version="1.1" xmlns="http://www.w3.org/2000/svg" xmlns:xlink="http://www.w3.org/1999/xlink">
    <!-- Generator: Sketch 62 (91390) - https://sketch.com -->
    <title>icon-resume</title>
    <desc>Created with Sketch.</desc>
    <g id="Page-1" stroke="none" stroke-width="1" fill="none" fill-rule="evenodd" stroke-linecap="round" stroke-linejoin="round">
        <g id="Extra-Large-Desktop/1440" transform="translate(-860.000000, -7881.000000)" stroke="#0A090C" stroke-width="1.05">
            <g id="social-media" transform="translate(860.000000, 7856.635963)">
                <g id="icon-resume" transform="translate(0.400000, 25.100000)">
                    <path d="M3.675,1.5743 L1.575,1.5743 C0.995101013,1.5743 0.525,2.04440101 0.525,2.6243 L0.525,15.2243 C0.525,15.804199 0.995101013,16.2743 1.575,16.2743 L15.225,16.2743 C15.804899,16.2743 16.275,15.804199 16.275,15.2243 L16.275,2.6243 C16.275,2.04440101 15.804899,1.5743 15.225,1.5743 L7.875,1.5743" id="Path"></path>
                    <path d="M7.875,7.8743 L5.775,6.3 L3.67499953,7.875 L3.67499953,1.05 C3.67481419,0.910640099 3.73004449,0.776924393 3.82852123,0.678316345 C3.92699798,0.579708297 4.06063998,0.5243 4.2,0.5243 L7.35,0.5243 C7.63994949,0.5243 7.875,0.759350506 7.875,1.0493 L7.875,7.8743 Z" id="Path"></path>
                    <line x1="3.675" y1="13.1243" x2="11.025" y2="13.1243" id="Path"></line>
                    <line x1="3.675" y1="9.9743" x2="13.125" y2="9.9743" id="Path"></line>
                    <line x1="13.125" y1="6.8243" x2="9.975" y2="6.8243" id="Path"></line>
                </g>
            </g>
        </g>
    </g>
</svg>