<?xml version="1.0" encoding="UTF-8"?>
<svg width="165px" height="33px" viewBox="0 0 165 33" version="1.1" xmlns="http://www.w3.org/2000/svg" xmlns:xlink="http://www.w3.org/1999/xlink">
    <!-- Generator: Sketch 62 (91390) - https://sketch.com -->
    <title>tuxd</title>
    <desc>Created with Sketch.</desc>
    <g id="Page-1" stroke="none" stroke-width="1" fill="none" fill-rule="evenodd">
        <g id="Extra-Large-Desktop/1440" transform="translate(-528.000000, -1479.000000)" fill="#0A090C" fill-rule="nonzero">
            <g id="Group-2" transform="translate(327.000000, 1478.854679)">
                <g id="tuxd" transform="translate(201.400000, 0.195321)">
                    <path d="M9.31,9.8 L0.42,9.8 C0.28,9.8 0.14,9.87 0.07,9.94 C0,10.01 0,10.15 0,10.29 L0,10.64 C0,10.78 0,10.92 0.07,10.99 C0.14,11.06 0.21,11.06 0.42,11.06 L4.27,11.06 L4.27,23.1 C4.27,23.24 4.27,23.38 4.34,23.45 C4.41,23.52 4.48,23.52 4.69,23.52 L5.04,23.52 C5.18,23.52 5.32,23.52 5.39,23.45 C5.46,23.38 5.53,23.31 5.53,23.1 L5.53,11.06 L9.31,11.06 C9.45,11.06 9.59,11.06 9.66,10.99 C9.73,10.92 9.8,10.85 9.8,10.64 L9.8,10.22 C9.8,10.08 9.8,9.94 9.73,9.87 C9.52,9.8 9.45,9.8 9.31,9.8 Z M14.91,13.09 C14.07,13.09 13.51,13.23 13.02,13.51 C12.53,13.79 12.11,14.14 11.69,14.63 L11.69,10.01 C11.69,9.87 11.69,9.73 11.62,9.66 C11.55,9.59 11.48,9.59 11.27,9.59 L10.92,9.59 C10.78,9.59 10.64,9.59 10.57,9.66 C10.5,9.8 10.5,9.87 10.5,10.01 L10.5,22.96 C10.5,23.1 10.5,23.24 10.57,23.31 C10.64,23.38 10.71,23.38 10.92,23.38 L11.27,23.38 C11.41,23.38 11.55,23.38 11.62,23.31 C11.69,23.24 11.69,23.17 11.69,22.96 L11.69,17.5 C11.69,16.45 11.97,15.68 12.53,15.05 C13.09,14.49 13.86,14.14 14.77,14.14 C15.75,14.14 16.52,14.49 17.01,15.05 C17.5,15.61 17.78,16.45 17.78,17.5 L17.78,22.96 C17.78,23.1 17.78,23.24 17.85,23.31 C17.92,23.38 17.99,23.38 18.2,23.38 L18.55,23.38 C18.69,23.38 18.83,23.38 18.9,23.31 C18.97,23.24 18.97,23.17 18.97,22.96 L18.97,17.43 C18.97,16.1 18.62,15.12 17.99,14.28 C17.15,13.51 16.24,13.09 14.91,13.09 L14.91,13.09 Z M24.71,13.09 C23.45,13.09 22.47,13.51 21.77,14.35 C21,15.19 20.65,16.24 20.51,17.57 L20.51,19.11 C20.58,20.44 21,21.56 21.84,22.33 C22.61,23.17 23.59,23.59 24.78,23.59 C25.55,23.59 26.25,23.45 26.81,23.17 C27.37,22.89 27.86,22.61 28.21,22.19 C28.56,21.77 28.7,21.42 28.7,21.21 C28.7,21.14 28.7,21.07 28.63,20.93 C28.56,20.86 28.49,20.86 28.28,20.86 L28,20.86 C27.86,20.86 27.72,20.86 27.65,20.93 C27.58,20.93 27.51,21.07 27.37,21.28 C27.23,21.56 26.88,21.84 26.39,22.12 C25.97,22.4 25.41,22.54 24.64,22.54 C24.08,22.54 23.52,22.4 23.1,22.05 C22.61,21.7 22.26,21.28 22.05,20.79 C21.77,20.3 21.63,19.74 21.63,19.04 L21.63,18.9 L28.56,18.9 C28.7,18.9 28.84,18.9 28.91,18.83 C28.98,18.76 29.05,18.69 29.05,18.48 L29.05,18.13 C29.05,16.59 28.63,15.33 27.93,14.42 C27.09,13.51 25.97,13.09 24.71,13.09 Z M27.79,17.71 L21.63,17.71 L21.63,17.64 C21.63,16.66 21.91,15.82 22.47,15.19 C23.03,14.56 23.8,14.21 24.71,14.21 C25.62,14.21 26.46,14.56 26.95,15.19 C27.51,15.82 27.79,16.59 27.79,17.71 L27.79,17.71 Z M79.17,12.11 C78.82,11.34 78.26,10.78 77.49,10.36 C76.65,9.94 75.67,9.8 74.27,9.8 L70.14,9.8 C70,9.8 69.86,9.87 69.79,9.94 C69.72,10.01 69.72,10.08 69.72,10.29 L69.72,22.96 C69.72,23.1 69.72,23.24 69.79,23.31 C69.86,23.38 69.93,23.38 70.14,23.38 L74.34,23.38 C75.67,23.38 76.72,23.24 77.49,22.82 C78.26,22.4 78.82,21.91 79.17,21.07 C79.52,20.3 79.66,19.32 79.66,18.13 L79.66,16.59 L79.66,15.05 C79.66,13.79 79.52,12.81 79.17,12.11 Z M78.4,17.99 C78.4,19.04 78.26,19.81 77.98,20.44 C77.7,21 77.35,21.49 76.65,21.77 C76.09,22.05 75.25,22.19 74.2,22.19 L70.84,22.19 L70.84,10.92 L74.06,10.92 C75.53,10.92 76.72,11.27 77.28,11.9 C77.91,12.53 78.26,13.65 78.26,15.12 L78.26,16.52 C78.47,17.15 78.4,17.64 78.4,17.99 Z M85.33,13.09 C84.07,13.09 83.09,13.51 82.39,14.35 C81.69,15.19 81.27,16.24 81.13,17.57 L81.13,19.11 C81.2,20.44 81.62,21.56 82.46,22.33 C83.23,23.17 84.21,23.59 85.4,23.59 C86.17,23.59 86.87,23.45 87.43,23.17 C87.99,22.89 88.48,22.61 88.83,22.19 C89.18,21.77 89.32,21.42 89.32,21.21 C89.32,21.14 89.32,21.07 89.25,20.93 C89.18,20.86 89.11,20.86 88.9,20.86 L88.55,20.86 C88.41,20.86 88.27,20.86 88.2,20.93 C88.13,20.93 88.06,21.07 87.92,21.28 C87.78,21.56 87.43,21.84 86.94,22.12 C86.52,22.4 85.96,22.54 85.19,22.54 C84.63,22.54 84.07,22.4 83.65,22.05 C83.23,21.7 82.81,21.28 82.6,20.79 C82.39,20.3 82.18,19.74 82.18,19.04 L82.18,18.9 L89.11,18.9 C89.25,18.9 89.39,18.9 89.46,18.83 C89.53,18.76 89.6,18.69 89.6,18.48 L89.6,18.13 C89.6,16.59 89.18,15.33 88.48,14.42 C87.78,13.51 86.73,13.09 85.33,13.09 L85.33,13.09 Z M88.48,17.71 L82.32,17.71 L82.32,17.64 C82.32,16.66 82.6,15.82 83.16,15.19 C83.72,14.56 84.49,14.21 85.4,14.21 C86.31,14.21 87.15,14.56 87.64,15.19 C88.2,15.82 88.48,16.59 88.48,17.71 L88.48,17.71 Z M98.84,14.42 C98.21,13.51 97.09,13.09 95.69,13.09 C94.29,13.09 93.24,13.58 92.4,14.63 L92.4,13.72 C92.4,13.58 92.4,13.44 92.33,13.37 C92.26,13.3 92.19,13.3 91.98,13.3 L91.7,13.3 C91.56,13.3 91.42,13.3 91.35,13.37 C91.28,13.44 91.28,13.51 91.28,13.72 L91.28,26.67 C91.28,26.81 91.28,26.95 91.35,27.02 C91.42,27.09 91.49,27.09 91.7,27.09 L92.05,27.09 C92.19,27.09 92.33,27.09 92.4,27.02 C92.47,26.95 92.47,26.88 92.47,26.67 L92.47,22.05 C93.24,23.03 94.29,23.59 95.76,23.59 C97.16,23.59 98.14,23.17 98.91,22.26 C99.54,21.35 99.89,20.3 99.96,18.97 L99.96,18.34 L99.96,17.71 C99.82,16.38 99.47,15.33 98.84,14.42 L98.84,14.42 Z M98.7,18.83 C98.7,19.88 98.35,20.72 97.86,21.35 C97.37,21.98 96.6,22.33 95.55,22.33 C94.92,22.33 94.29,22.19 93.8,21.84 C93.31,21.49 92.96,21.07 92.75,20.58 C92.47,20.09 92.4,19.6 92.4,19.04 L92.4,17.5 C92.4,16.59 92.75,15.75 93.24,15.12 C93.73,14.49 94.57,14.14 95.55,14.14 C96.67,14.14 97.51,14.56 97.93,15.26 C98.42,16.03 98.56,17.01 98.56,18.2 C98.7,18.55 98.7,18.76 98.7,18.83 Z M105.07,13.09 C104.23,13.09 103.6,13.23 103.11,13.51 C102.55,13.79 102.2,14.14 101.85,14.49 C101.57,14.91 101.43,15.26 101.43,15.47 C101.43,15.54 101.5,15.75 101.57,15.82 C101.64,15.89 101.71,15.96 101.92,15.96 L102.2,15.96 C102.27,15.96 102.48,15.96 102.48,15.89 C102.55,15.82 102.62,15.75 102.62,15.54 C102.69,15.19 103.04,14.91 103.46,14.63 C103.88,14.35 104.44,14.21 105.14,14.21 C106.05,14.21 106.68,14.35 107.1,14.77 C107.52,15.19 107.73,15.68 107.73,16.45 L107.73,17.08 L104.72,17.5 C103.6,17.64 102.55,17.99 101.92,18.55 C101.29,19.11 100.87,19.81 100.87,20.58 C100.87,21.07 101.01,21.56 101.36,22.05 C101.71,22.47 102.13,22.89 102.62,23.1 C103.11,23.31 103.67,23.52 104.37,23.52 C105.28,23.52 106.05,23.38 106.61,23.1 C107.17,22.75 107.59,22.47 107.87,22.05 L107.87,22.96 C107.87,23.1 107.87,23.24 107.94,23.31 C108.01,23.38 108.08,23.38 108.29,23.38 L108.64,23.38 C108.78,23.38 108.92,23.38 108.99,23.31 C109.06,23.24 109.06,23.17 109.06,22.96 L109.06,16.52 C109.06,15.61 108.71,14.77 108.15,14.14 C107.38,13.58 106.4,13.09 105.07,13.09 L105.07,13.09 Z M107.73,18.83 C107.73,19.95 107.38,20.86 106.82,21.56 C106.26,22.26 105.42,22.47 104.51,22.47 C103.88,22.47 103.25,22.33 102.76,21.98 C102.27,21.63 101.99,21.21 101.99,20.58 C101.99,20.09 102.27,19.6 102.83,19.25 C103.39,18.9 104.16,18.69 105.21,18.48 L107.66,18.13 L107.66,18.83 L107.73,18.83 Z M114.94,13.23 L114.17,13.23 C112.84,13.23 112,13.65 111.51,14.56 L111.51,13.65 C111.51,13.51 111.44,13.37 111.37,13.3 C111.3,13.23 111.23,13.16 111.02,13.16 L110.67,13.16 C110.53,13.16 110.39,13.23 110.32,13.3 C110.25,13.37 110.25,13.44 110.25,13.65 L110.25,22.89 C110.25,23.03 110.25,23.17 110.32,23.24 C110.39,23.31 110.46,23.31 110.67,23.31 L111.02,23.31 C111.16,23.31 111.3,23.31 111.37,23.24 C111.44,23.17 111.51,23.1 111.51,22.89 L111.51,16.87 C111.51,16.1 111.79,15.47 112.14,15.05 C112.49,14.63 113.19,14.42 113.96,14.42 L114.8,14.42 C114.94,14.42 115.08,14.42 115.15,14.35 C115.22,14.28 115.22,14.21 115.22,14 L115.22,13.72 C115.22,13.58 115.22,13.44 115.15,13.37 C115.22,13.3 115.15,13.23 114.94,13.23 L114.94,13.23 Z M122.22,22.19 L121.1,22.19 C120.54,22.19 120.12,22.05 119.98,21.63 C119.7,21.28 119.63,20.72 119.63,19.95 L119.63,14.28 L122.01,14.28 C122.15,14.28 122.29,14.28 122.36,14.21 C122.43,14.14 122.43,14.07 122.43,13.86 L122.43,13.58 C122.43,13.44 122.43,13.3 122.36,13.23 C122.29,13.16 122.22,13.16 122.01,13.16 L119.63,13.16 L119.63,9.87 C119.63,9.73 119.63,9.59 119.56,9.52 C119.49,9.45 119.42,9.45 119.21,9.45 L118.79,9.45 C118.65,9.45 118.51,9.45 118.44,9.52 C118.37,9.59 118.37,9.66 118.37,9.87 L118.37,13.16 L116.9,13.16 C116.76,13.16 116.62,13.16 116.55,13.23 C116.48,13.3 116.48,13.37 116.48,13.58 L116.48,13.86 C116.48,14 116.48,14.14 116.55,14.21 C116.62,14.28 116.69,14.28 116.9,14.28 L118.37,14.28 L118.37,20.02 C118.37,21 118.51,21.84 118.93,22.4 C119.35,22.96 119.98,23.24 120.96,23.24 L122.08,23.24 C122.22,23.24 122.36,23.24 122.43,23.17 C122.5,23.1 122.5,23.03 122.5,22.82 L122.5,22.54 C122.5,22.4 122.5,22.26 122.43,22.19 C122.43,22.33 122.29,22.19 122.22,22.19 L122.22,22.19 Z M133.98,13.09 C133.21,13.09 132.58,13.23 132.02,13.58 C131.46,13.93 131.04,14.35 130.69,14.91 C130.06,13.65 129.01,13.09 127.54,13.09 C126.91,13.09 126.42,13.16 126,13.44 C125.58,13.72 125.16,14 124.88,14.42 L124.88,13.79 C124.88,13.65 124.88,13.51 124.81,13.44 C124.74,13.37 124.67,13.37 124.46,13.37 L124.11,13.37 C123.97,13.37 123.83,13.37 123.76,13.44 C123.69,13.51 123.69,13.58 123.69,13.79 L123.69,23.03 C123.69,23.17 123.69,23.31 123.76,23.38 C123.83,23.45 123.9,23.45 124.11,23.45 L124.46,23.45 C124.6,23.45 124.74,23.45 124.81,23.38 C124.88,23.31 124.88,23.24 124.88,23.03 L124.88,17.5 C124.88,16.38 125.16,15.54 125.65,15.05 C126.14,14.56 126.77,14.28 127.47,14.28 C128.24,14.28 128.87,14.56 129.36,15.05 C129.85,15.54 130.13,16.38 130.13,17.57 L130.13,23.03 C130.13,23.17 130.13,23.31 130.2,23.38 C130.27,23.45 130.34,23.45 130.55,23.45 L130.9,23.45 C131.04,23.45 131.18,23.45 131.25,23.38 C131.32,23.31 131.32,23.24 131.32,23.03 L131.32,17.57 C131.32,16.45 131.6,15.61 132.09,15.05 C132.58,14.56 133.21,14.28 133.91,14.28 C134.75,14.28 135.31,14.56 135.8,15.05 C136.29,15.54 136.57,16.38 136.57,17.57 L136.57,23.03 C136.57,23.17 136.57,23.31 136.64,23.38 C136.71,23.45 136.78,23.45 136.99,23.45 L137.34,23.45 C137.48,23.45 137.62,23.45 137.69,23.38 C137.76,23.31 137.76,23.24 137.76,23.03 L137.76,17.36 C137.76,16.03 137.41,14.98 136.78,14.21 C135.94,13.44 135.03,13.09 133.98,13.09 L133.98,13.09 Z M143.43,13.09 C142.17,13.09 141.19,13.51 140.49,14.35 C139.72,15.19 139.37,16.24 139.23,17.57 L139.23,19.11 C139.3,20.44 139.72,21.56 140.56,22.33 C141.33,23.17 142.31,23.59 143.5,23.59 C144.27,23.59 144.97,23.45 145.53,23.17 C146.09,22.89 146.58,22.61 146.93,22.19 C147.28,21.77 147.42,21.42 147.42,21.21 C147.42,21.14 147.42,21.07 147.35,20.93 C147.28,20.86 147.21,20.86 147,20.86 L146.65,20.86 C146.51,20.86 146.37,20.86 146.3,20.93 C146.23,20.93 146.16,21.07 146.02,21.28 C145.88,21.56 145.53,21.84 145.04,22.12 C144.62,22.4 144.06,22.54 143.29,22.54 C142.73,22.54 142.17,22.4 141.75,22.05 C141.26,21.7 140.91,21.28 140.7,20.79 C140.42,20.3 140.28,19.74 140.28,19.04 L140.28,18.9 L147.21,18.9 C147.35,18.9 147.49,18.9 147.56,18.83 C147.63,18.76 147.7,18.69 147.7,18.48 L147.7,18.13 C147.7,16.59 147.28,15.33 146.58,14.42 C145.81,13.51 144.76,13.09 143.43,13.09 Z M146.58,17.71 L140.42,17.71 L140.42,17.64 C140.42,16.66 140.7,15.82 141.26,15.19 C141.82,14.56 142.59,14.21 143.5,14.21 C144.41,14.21 145.25,14.56 145.74,15.19 C146.23,15.82 146.58,16.59 146.58,17.71 L146.58,17.71 Z M153.72,13.09 C152.88,13.09 152.32,13.23 151.83,13.51 C151.34,13.79 150.92,14.14 150.5,14.63 L150.5,13.72 C150.5,13.58 150.5,13.44 150.43,13.37 C150.36,13.3 150.29,13.3 150.08,13.3 L149.8,13.3 C149.66,13.3 149.52,13.3 149.45,13.37 C149.38,13.44 149.38,13.51 149.38,13.72 L149.38,22.96 C149.38,23.1 149.38,23.24 149.45,23.31 C149.52,23.38 149.59,23.38 149.8,23.38 L150.15,23.38 C150.29,23.38 150.43,23.38 150.5,23.31 C150.57,23.24 150.57,23.17 150.57,22.96 L150.57,17.5 C150.57,16.45 150.85,15.68 151.41,15.05 C151.97,14.49 152.74,14.14 153.65,14.14 C154.63,14.14 155.4,14.49 155.89,15.05 C156.38,15.61 156.66,16.45 156.66,17.5 L156.66,22.96 C156.66,23.1 156.66,23.24 156.73,23.31 C156.8,23.38 156.87,23.38 157.08,23.38 L157.43,23.38 C157.57,23.38 157.71,23.38 157.78,23.31 C157.85,23.24 157.85,23.17 157.85,22.96 L157.85,17.43 C157.85,16.1 157.5,15.12 156.87,14.28 C156.03,13.51 155.05,13.09 153.72,13.09 L153.72,13.09 Z M164.5,22.4 C164.43,22.33 164.36,22.33 164.15,22.33 L163.1,22.33 C162.54,22.33 162.12,22.19 161.98,21.77 C161.7,21.42 161.63,20.86 161.63,20.09 L161.63,14.42 L164.01,14.42 C164.15,14.42 164.29,14.42 164.36,14.35 C164.43,14.28 164.43,14.21 164.43,14 L164.43,13.72 C164.43,13.58 164.43,13.44 164.36,13.37 C164.29,13.3 164.22,13.3 164.01,13.3 L161.63,13.3 L161.63,10.01 C161.63,9.87 161.63,9.73 161.56,9.66 C161.49,9.59 161.42,9.59 161.21,9.59 L160.79,9.59 C160.65,9.59 160.51,9.59 160.44,9.66 C160.37,9.73 160.37,9.8 160.37,10.01 L160.37,13.3 L158.9,13.3 C158.76,13.3 158.62,13.3 158.55,13.37 C158.48,13.44 158.48,13.51 158.48,13.72 L158.48,14 C158.48,14.14 158.48,14.28 158.55,14.35 C158.62,14.42 158.69,14.42 158.9,14.42 L160.37,14.42 L160.37,20.16 C160.37,21.14 160.51,21.98 160.93,22.54 C161.35,23.1 161.98,23.38 162.96,23.38 L164.08,23.38 C164.22,23.38 164.36,23.38 164.43,23.31 C164.5,23.24 164.5,23.17 164.5,22.96 L164.5,22.68 C164.57,22.54 164.57,22.47 164.5,22.4 L164.5,22.4 Z M53.27,15.33 L54.04,14.28 L51.03,10.01 C50.89,9.87 50.68,9.66 50.54,9.66 L50.12,9.66 C50.05,9.66 49.98,9.66 49.84,9.73 C49.7,9.8 49.7,9.87 49.7,9.94 C49.7,10.01 49.7,10.08 49.77,10.22 L53.27,15.33 L53.27,15.33 Z" id="Shape"></path>
                    <g id="Group" transform="translate(32.900000, 0.000000)">
                        <path d="M27.02,10.01 C27.02,9.94 27.02,9.87 26.95,9.73 C26.88,9.66 26.81,9.66 26.67,9.66 L26.25,9.66 C26.11,9.66 25.9,9.73 25.76,10.01 L16.8,22.54 C16.73,22.61 16.73,22.68 16.73,22.82 C16.73,22.89 16.73,22.96 16.8,23.1 C16.87,23.17 16.94,23.17 17.08,23.17 L17.5,23.17 C17.64,23.17 17.85,23.1 17.99,22.82 L21.84,17.36 L25.69,22.82 C25.83,22.96 26.04,23.17 26.18,23.17 L26.6,23.17 C26.67,23.17 26.74,23.17 26.88,23.1 C26.95,23.03 26.95,22.96 26.95,22.82 C26.95,22.75 26.95,22.68 26.88,22.54 L22.54,16.45 L26.88,10.36 C27.02,10.22 27.02,10.15 27.02,10.01 L27.02,10.01 Z M15.4,9.66 L15.05,9.66 C14.91,9.66 14.77,9.66 14.7,9.73 C14.63,9.8 14.56,9.87 14.56,10.08 L14.56,17.99 C14.56,19.39 14.21,20.44 13.58,21.14 C12.95,21.77 12.04,22.19 10.85,22.19 C9.73,22.19 8.68,21.84 8.05,21.14 C7.42,20.51 7.07,19.39 7.07,17.99 L7.07,10.01 C7.07,9.87 7.07,9.73 7,9.66 C6.93,9.59 6.86,9.59 6.65,9.59 L6.3,9.59 C6.16,9.59 6.02,9.59 5.95,9.73 C5.88,9.8 5.88,9.87 5.88,10.08 L5.88,17.92 C5.88,19.74 6.3,21.14 7.21,21.98 C8.05,22.89 9.24,23.31 10.92,23.31 C12.46,23.31 13.72,22.89 14.63,21.98 C15.47,21.07 15.89,19.74 15.89,17.85 L15.89,10.01 C15.89,9.87 15.89,9.73 15.82,9.66 C15.68,9.73 15.47,9.66 15.4,9.66 Z" id="Shape"></path>
                        <path d="M16.45,0 C7.42,0 0,7.42 0,16.45 C0,25.48 7.42,32.9 16.45,32.9 C25.48,32.9 32.9,25.48 32.9,16.45 C32.9,7.42 25.55,0 16.45,0 Z M16.45,31.71 C8.05,31.71 1.26,24.85 1.26,16.52 C1.26,8.19 8.05,1.26 16.45,1.26 C24.85,1.26 31.64,8.12 31.64,16.45 C31.71,24.85 24.85,31.71 16.45,31.71 Z" id="Shape"></path>
                    </g>
                </g>
            </g>
        </g>
    </g>
</svg>